<svg id="visual" viewBox="0 0 900 600" width="900" height="600" xmlns="http://www.w3.org/2000/svg" xmlns:xlink="http://www.w3.org/1999/xlink" version="1.1"><rect x="0" y="0" width="900" height="600" fill="#FFFFFF"></rect><defs><linearGradient id="grad1_0" x1="33.3%" y1="0%" x2="100%" y2="100%"><stop offset="20%" stop-color="#2674b4" stop-opacity="1"></stop><stop offset="80%" stop-color="#2674b4" stop-opacity="1"></stop></linearGradient></defs><defs><linearGradient id="grad1_1" x1="33.3%" y1="0%" x2="100%" y2="100%"><stop offset="20%" stop-color="#2674b4" stop-opacity="1"></stop><stop offset="80%" stop-color="#7da0cd" stop-opacity="1"></stop></linearGradient></defs><defs><linearGradient id="grad1_2" x1="33.3%" y1="0%" x2="100%" y2="100%"><stop offset="20%" stop-color="#bfcee6" stop-opacity="1"></stop><stop offset="80%" stop-color="#7da0cd" stop-opacity="1"></stop></linearGradient></defs><defs><linearGradient id="grad1_3" x1="33.3%" y1="0%" x2="100%" y2="100%"><stop offset="20%" stop-color="#bfcee6" stop-opacity="1"></stop><stop offset="80%" stop-color="#ffffff" stop-opacity="1"></stop></linearGradient></defs><defs><linearGradient id="grad2_0" x1="0%" y1="0%" x2="66.7%" y2="100%"><stop offset="20%" stop-color="#2674b4" stop-opacity="1"></stop><stop offset="80%" stop-color="#2674b4" stop-opacity="1"></stop></linearGradient></defs><defs><linearGradient id="grad2_1" x1="0%" y1="0%" x2="66.7%" y2="100%"><stop offset="20%" stop-color="#7da0cd" stop-opacity="1"></stop><stop offset="80%" stop-color="#2674b4" stop-opacity="1"></stop></linearGradient></defs><defs><linearGradient id="grad2_2" x1="0%" y1="0%" x2="66.7%" y2="100%"><stop offset="20%" stop-color="#7da0cd" stop-opacity="1"></stop><stop offset="80%" stop-color="#bfcee6" stop-opacity="1"></stop></linearGradient></defs><defs><linearGradient id="grad2_3" x1="0%" y1="0%" x2="66.7%" y2="100%"><stop offset="20%" stop-color="#ffffff" stop-opacity="1"></stop><stop offset="80%" stop-color="#bfcee6" stop-opacity="1"></stop></linearGradient></defs><g transform="translate(900, 0)"><path d="M0 513.8C-45.8 483.9 -91.7 454.1 -143.7 442.2C-195.7 430.4 -254 436.6 -302 415.7C-350 394.7 -387.7 346.7 -408.6 296.8C-429.4 247 -433.2 195.3 -447.9 145.5C-462.7 95.8 -488.2 47.9 -513.8 0L0 0Z" fill="#dfe6f3"></path><path d="M0 385.3C-34.4 362.9 -68.7 340.6 -107.8 331.7C-146.8 322.8 -190.5 327.4 -226.5 311.7C-262.5 296.1 -290.8 260 -306.4 222.6C-322 185.2 -324.9 146.5 -336 109.2C-347 71.8 -366.2 35.9 -385.3 0L0 0Z" fill="#9fb7da"></path><path d="M0 256.9C-22.9 242 -45.8 227 -71.8 221.1C-97.9 215.2 -127 218.3 -151 207.8C-175 197.4 -193.9 173.3 -204.3 148.4C-214.7 123.5 -216.6 97.7 -224 72.8C-231.3 47.9 -244.1 23.9 -256.9 0L0 0Z" fill="#5889c1"></path><path d="M0 128.4C-11.5 121 -22.9 113.5 -35.9 110.6C-48.9 107.6 -63.5 109.1 -75.5 103.9C-87.5 98.7 -96.9 86.7 -102.1 74.2C-107.3 61.7 -108.3 48.8 -112 36.4C-115.7 23.9 -122.1 12 -128.4 0L0 0Z" fill="#2674b4"></path></g><g transform="translate(0, 600)"><path d="M0 -513.8C40.4 -465 80.7 -416.2 131.6 -405.2C182.5 -394.1 244 -420.7 298.6 -411C353.2 -401.2 401.1 -355.1 415.7 -302C430.2 -248.9 411.5 -188.7 422.3 -137.2C433.1 -85.7 473.4 -42.8 513.8 0L0 0Z" fill="#dfe6f3"></path><path d="M0 -385.3C30.3 -348.8 60.6 -312.2 98.7 -303.9C136.9 -295.6 183 -315.5 223.9 -308.2C264.9 -300.9 300.8 -266.3 311.7 -226.5C322.7 -186.6 308.6 -141.5 316.7 -102.9C324.8 -64.3 355.1 -32.1 385.3 0L0 0Z" fill="#9fb7da"></path><path d="M0 -256.9C20.2 -232.5 40.4 -208.1 65.8 -202.6C91.3 -197 122 -210.4 149.3 -205.5C176.6 -200.6 200.6 -177.6 207.8 -151C215.1 -124.4 205.7 -94.4 211.1 -68.6C216.5 -42.8 236.7 -21.4 256.9 0L0 0Z" fill="#5889c1"></path><path d="M0 -128.4C10.1 -116.3 20.2 -104.1 32.9 -101.3C45.6 -98.5 61 -105.2 74.6 -102.7C88.3 -100.3 100.3 -88.8 103.9 -75.5C107.6 -62.2 102.9 -47.2 105.6 -34.3C108.3 -21.4 118.4 -10.7 128.4 0L0 0Z" fill="#2674b4"></path></g></svg>