<svg id="visual" viewBox="0 0 900 600" width="900" height="600" xmlns="http://www.w3.org/2000/svg" xmlns:xlink="http://www.w3.org/1999/xlink" version="1.1"><rect x="0" y="0" width="900" height="600" fill="#FFFFFF"></rect><defs><linearGradient id="grad1_0" x1="33.3%" y1="0%" x2="100%" y2="100%"><stop offset="20%" stop-color="#0e3a5f" stop-opacity="1"></stop><stop offset="80%" stop-color="#0e3a5f" stop-opacity="1"></stop></linearGradient></defs><defs><linearGradient id="grad1_1" x1="33.3%" y1="0%" x2="100%" y2="100%"><stop offset="20%" stop-color="#0e3a5f" stop-opacity="1"></stop><stop offset="80%" stop-color="#637692" stop-opacity="1"></stop></linearGradient></defs><defs><linearGradient id="grad1_2" x1="33.3%" y1="0%" x2="100%" y2="100%"><stop offset="20%" stop-color="#afb8c7" stop-opacity="1"></stop><stop offset="80%" stop-color="#637692" stop-opacity="1"></stop></linearGradient></defs><defs><linearGradient id="grad1_3" x1="33.3%" y1="0%" x2="100%" y2="100%"><stop offset="20%" stop-color="#afb8c7" stop-opacity="1"></stop><stop offset="80%" stop-color="#ffffff" stop-opacity="1"></stop></linearGradient></defs><defs><linearGradient id="grad2_0" x1="0%" y1="0%" x2="66.7%" y2="100%"><stop offset="20%" stop-color="#0e3a5f" stop-opacity="1"></stop><stop offset="80%" stop-color="#0e3a5f" stop-opacity="1"></stop></linearGradient></defs><defs><linearGradient id="grad2_1" x1="0%" y1="0%" x2="66.7%" y2="100%"><stop offset="20%" stop-color="#637692" stop-opacity="1"></stop><stop offset="80%" stop-color="#0e3a5f" stop-opacity="1"></stop></linearGradient></defs><defs><linearGradient id="grad2_2" x1="0%" y1="0%" x2="66.7%" y2="100%"><stop offset="20%" stop-color="#637692" stop-opacity="1"></stop><stop offset="80%" stop-color="#afb8c7" stop-opacity="1"></stop></linearGradient></defs><defs><linearGradient id="grad2_3" x1="0%" y1="0%" x2="66.7%" y2="100%"><stop offset="20%" stop-color="#ffffff" stop-opacity="1"></stop><stop offset="80%" stop-color="#afb8c7" stop-opacity="1"></stop></linearGradient></defs><g transform="translate(900, 0)"><path d="M0 540.8C-50.1 514.3 -100.2 487.7 -152 467.9C-203.9 448.2 -257.4 435.2 -292.7 402.9C-328 370.6 -345.1 318.9 -384.3 279.2C-423.4 239.5 -484.6 211.7 -514.4 167.1C-544.1 122.6 -542.5 61.3 -540.8 0L0 0Z" fill="#d7dbe3"></path><path d="M0 405.6C-37.6 385.7 -75.2 365.8 -114 350.9C-152.9 336.1 -193 326.4 -219.5 302.2C-246 277.9 -258.9 239.2 -288.2 209.4C-317.6 179.6 -363.4 158.8 -385.8 125.3C-408.1 91.9 -406.9 46 -405.6 0L0 0Z" fill="#8996ac"></path><path d="M0 270.4C-25.1 257.1 -50.1 243.8 -76 234C-101.9 224.1 -128.7 217.6 -146.4 201.4C-164 185.3 -172.6 159.5 -192.1 139.6C-211.7 119.7 -242.3 105.8 -257.2 83.6C-272.1 61.3 -271.2 30.6 -270.4 0L0 0Z" fill="#3d5778"></path><path d="M0 135.2C-12.5 128.6 -25.1 121.9 -38 117C-51 112 -64.3 108.8 -73.2 100.7C-82 92.6 -86.3 79.7 -96.1 69.8C-105.9 59.9 -121.1 52.9 -128.6 41.8C-136 30.6 -135.6 15.3 -135.2 0L0 0Z" fill="#0e3a5f"></path></g><g transform="translate(0, 600)"><path d="M0 -540.8C47 -502.8 94 -464.8 144.6 -445.1C195.2 -425.4 249.4 -423.9 291 -400.5C332.5 -377 361.3 -331.5 400.5 -291C439.7 -250.4 489.2 -214.8 514.4 -167.1C539.5 -119.5 540.2 -59.7 540.8 0L0 0Z" fill="#d7dbe3"></path><path d="M0 -405.6C35.3 -377.1 70.5 -348.6 108.5 -333.8C146.4 -319 187.1 -317.9 218.2 -300.3C249.3 -282.7 271 -248.6 300.3 -218.2C329.7 -187.8 366.9 -161.1 385.8 -125.3C404.6 -89.6 405.1 -44.8 405.6 0L0 0Z" fill="#8996ac"></path><path d="M0 -270.4C23.5 -251.4 47 -232.4 72.3 -222.5C97.6 -212.7 124.7 -212 145.5 -200.2C166.2 -188.5 180.6 -165.8 200.2 -145.5C219.8 -125.2 244.6 -107.4 257.2 -83.6C269.7 -59.7 270.1 -29.9 270.4 0L0 0Z" fill="#3d5778"></path><path d="M0 -135.2C11.8 -125.7 23.5 -116.2 36.2 -111.3C48.8 -106.3 62.4 -106 72.7 -100.1C83.1 -94.2 90.3 -82.9 100.1 -72.7C109.9 -62.6 122.3 -53.7 128.6 -41.8C134.9 -29.9 135 -14.9 135.2 0L0 0Z" fill="#0e3a5f"></path></g></svg>