<svg id="visual" viewBox="0 0 900 600" width="900" height="600" xmlns="http://www.w3.org/2000/svg" xmlns:xlink="http://www.w3.org/1999/xlink" version="1.1"><rect width="900" height="600" fill="#FFFFFF"></rect><g><g transform="translate(27 249)"><path d="M8.9 -3C10 0.5 8.3 4.8 5 7.2C1.8 9.6 -3 10.1 -6.1 7.9C-9.3 5.7 -10.8 0.9 -9.5 -2.8C-8.2 -6.6 -4.1 -9.1 -0.1 -9.1C3.9 -9 7.8 -6.4 8.9 -3Z" fill="#49adff"></path></g><g transform="translate(667 157)"><path d="M7.4 -2.2C8.5 1 7.6 5.1 4.9 7.1C2.2 9.2 -2.2 9.2 -5 7.1C-7.8 5 -9 0.9 -7.9 -2.3C-6.7 -5.6 -3.4 -7.8 -0.1 -7.8C3.1 -7.8 6.3 -5.4 7.4 -2.2Z" fill="#49adff"></path></g><g transform="translate(865 359)"><path d="M8.6 -3C9.6 0.4 7.9 4.5 5.1 6.4C2.2 8.4 -1.8 8.2 -4.3 6.3C-6.9 4.3 -8 0.7 -7.1 -2.6C-6.1 -5.9 -3 -8.9 0.4 -9C3.8 -9.2 7.5 -6.4 8.6 -3Z" fill="#49adff"></path></g><g transform="translate(231 108)"><path d="M5.9 -1.9C6.6 0.2 5.4 3 3.3 4.6C1.1 6.1 -1.9 6.5 -3.8 5.1C-5.6 3.8 -6.3 0.8 -5.5 -1.5C-4.6 -3.8 -2.3 -5.3 0.1 -5.4C2.6 -5.4 5.2 -4 5.9 -1.9Z" fill="#49adff"></path></g><g transform="translate(673 531)"><path d="M5.8 -2.1C6.6 0.5 5.6 3.4 3.5 5C1.4 6.6 -1.8 6.8 -3.9 5.3C-6 3.8 -7 0.6 -6.2 -2.1C-5.4 -4.7 -2.7 -6.8 -0.1 -6.8C2.5 -6.7 5.1 -4.6 5.8 -2.1Z" fill="#49adff"></path></g><g transform="translate(549 506)"><path d="M4.7 -1.8C5.3 0.4 4.5 2.7 2.9 3.9C1.2 5 -1.2 5 -3 3.8C-4.8 2.5 -5.9 0.1 -5.3 -2C-4.7 -4.1 -2.4 -5.9 -0.2 -5.8C2 -5.8 4.1 -3.9 4.7 -1.8Z" fill="#49adff"></path></g><g transform="translate(764 309)"><path d="M7.2 -2.4C8.2 0.5 6.9 4.1 4.5 5.8C2.1 7.4 -1.5 7.1 -3.7 5.4C-6 3.7 -7.1 0.5 -6.2 -2.2C-5.4 -4.9 -2.7 -7.2 0.2 -7.3C3.1 -7.4 6.3 -5.2 7.2 -2.4Z" fill="#49adff"></path></g><g transform="translate(607 526)"><path d="M6.1 -2.1C6.8 0.2 5.5 3 3.3 4.7C1.1 6.3 -2.1 6.8 -3.9 5.4C-5.7 4.1 -6.1 1 -5.2 -1.6C-4.4 -4.1 -2.2 -6.2 0.3 -6.2C2.7 -6.3 5.4 -4.5 6.1 -2.1Z" fill="#49adff"></path></g><g transform="translate(473 394)"><path d="M6.4 -2C7.4 0.8 6.5 4.3 4.4 5.9C2.2 7.4 -1.3 7 -3.5 5.3C-5.7 3.6 -6.5 0.6 -5.7 -2C-4.9 -4.7 -2.5 -7 0.1 -7C2.7 -7.1 5.5 -4.9 6.4 -2Z" fill="#49adff"></path></g><g transform="translate(65 429)"><path d="M4.8 -1.5C5.4 0.3 4.5 2.6 2.7 4C0.9 5.4 -1.8 5.8 -3.4 4.7C-5 3.5 -5.4 0.8 -4.6 -1.2C-3.8 -3.3 -1.9 -4.7 0.1 -4.7C2.1 -4.7 4.2 -3.4 4.8 -1.5Z" fill="#49adff"></path></g><g transform="translate(555 556)"><path d="M5.4 -1.6C6.3 0.8 5.7 3.9 3.7 5.3C1.8 6.8 -1.4 6.6 -3.4 5.1C-5.4 3.5 -6.2 0.6 -5.4 -1.7C-4.6 -4 -2.3 -5.8 0 -5.8C2.3 -5.8 4.6 -4 5.4 -1.6Z" fill="#49adff"></path></g><g transform="translate(237 402)"><path d="M7.2 -2C8.3 1.2 7.6 5.4 4.9 7.4C2.3 9.5 -2.3 9.5 -5 7.4C-7.7 5.3 -8.5 1.2 -7.3 -2C-6.2 -5.2 -3.1 -7.4 0 -7.4C3 -7.4 6 -5.2 7.2 -2Z" fill="#49adff"></path></g><g transform="translate(857 479)"><path d="M5.4 -1.9C6 0.3 5 2.9 3.1 4.3C1.1 5.7 -1.7 6 -3.5 4.8C-5.2 3.5 -5.8 0.7 -5.1 -1.6C-4.3 -4 -2.2 -5.8 0.1 -5.9C2.3 -5.9 4.7 -4.1 5.4 -1.9Z" fill="#49adff"></path></g><g transform="translate(631 31)"><path d="M6.2 -1.9C7.2 1 6.5 4.5 4.4 6C2.3 7.5 -1.2 7 -3.5 5.2C-5.9 3.4 -7.1 0.4 -6.3 -2.3C-5.5 -4.9 -2.7 -7.2 -0.1 -7.2C2.6 -7.2 5.3 -4.9 6.2 -1.9Z" fill="#49adff"></path></g><g transform="translate(715 184)"><path d="M9.2 -3.1C10.2 0.2 8.2 4.5 5 6.8C1.7 9.1 -2.8 9.6 -5.6 7.6C-8.3 5.6 -9.3 1.1 -8.1 -2.4C-6.8 -6 -3.4 -8.6 0.3 -8.7C4.1 -8.8 8.1 -6.4 9.2 -3.1Z" fill="#49adff"></path></g><g transform="translate(151 27)"><path d="M6.1 -2C6.7 0.1 5.4 2.8 3.2 4.4C1.1 5.9 -1.9 6.3 -3.7 4.9C-5.6 3.6 -6.4 0.6 -5.7 -1.7C-4.9 -4 -2.4 -5.6 0.1 -5.6C2.7 -5.7 5.4 -4.1 6.1 -2Z" fill="#49adff"></path></g><g transform="translate(183 309)"><path d="M6.3 -1.9C7.2 0.6 6.2 3.9 4 5.4C1.9 7 -1.5 6.8 -3.6 5.2C-5.7 3.6 -6.6 0.6 -5.8 -1.8C-5 -4.2 -2.5 -6 0.1 -6.1C2.7 -6.1 5.4 -4.4 6.3 -1.9Z" fill="#49adff"></path></g><g transform="translate(654 409)"><path d="M4 -1.4C4.6 0.5 4 2.6 2.5 3.8C1 5 -1.4 5.1 -2.9 4C-4.5 3 -5 0.6 -4.4 -1.4C-3.8 -3.4 -1.9 -5.1 -0.1 -5C1.7 -5 3.4 -3.3 4 -1.4Z" fill="#49adff"></path></g><g transform="translate(434 310)"><path d="M4.1 -1.4C4.8 0.6 4.3 2.9 2.7 4.1C1.2 5.3 -1.3 5.3 -2.9 4.2C-4.4 3 -5 0.6 -4.3 -1.4C-3.7 -3.4 -1.8 -5 0 -4.9C1.7 -4.9 3.5 -3.3 4.1 -1.4Z" fill="#49adff"></path></g><g transform="translate(94 317)"><path d="M7.1 -2.3C8.1 0.8 7 4.5 4.4 6.4C1.8 8.4 -2.3 8.6 -4.8 6.7C-7.4 4.9 -8.4 0.9 -7.3 -2.3C-6.2 -5.4 -3.1 -7.8 0 -7.8C3 -7.8 6.1 -5.4 7.1 -2.3Z" fill="#49adff"></path></g><g transform="translate(289 14)"><path d="M6.5 -2.1C7.6 1.1 6.9 4.9 4.6 6.7C2.3 8.5 -1.8 8.2 -4.4 6.3C-7.1 4.3 -8.4 0.6 -7.4 -2.6C-6.5 -5.7 -3.2 -8.2 -0.2 -8.1C2.7 -8 5.5 -5.4 6.5 -2.1Z" fill="#49adff"></path></g><g transform="translate(115 381)"><path d="M7.2 -2.2C8.2 0.7 7.1 4.4 4.4 6.3C1.8 8.3 -2.3 8.5 -4.6 6.7C-6.9 5 -7.4 1.2 -6.3 -1.7C-5.3 -4.7 -2.6 -6.8 0.3 -6.9C3.1 -7 6.3 -5 7.2 -2.2Z" fill="#49adff"></path></g><g transform="translate(102 440)"><path d="M6.7 -1.9C7.7 0.9 6.8 4.6 4.4 6.4C2 8.3 -2.1 8.3 -4.5 6.5C-6.9 4.7 -7.8 0.9 -6.8 -1.9C-5.8 -4.7 -2.9 -6.7 0 -6.7C2.8 -6.6 5.7 -4.7 6.7 -1.9Z" fill="#49adff"></path></g><g transform="translate(544 207)"><path d="M4.8 -1.4C5.4 0.4 4.7 2.9 3.1 3.9C1.5 5 -0.8 4.7 -2.4 3.5C-4 2.3 -4.9 0.2 -4.4 -1.5C-3.9 -3.2 -1.9 -4.5 0.1 -4.5C2.1 -4.5 4.2 -3.3 4.8 -1.4Z" fill="#49adff"></path></g><g transform="translate(360 418)"><path d="M5.6 -1.9C6.3 0.6 5.5 3.5 3.5 5C1.4 6.6 -1.8 6.7 -4 5.2C-6.2 3.6 -7.5 0.4 -6.7 -2.1C-5.8 -4.7 -2.9 -6.5 -0.3 -6.4C2.4 -6.3 4.8 -4.3 5.6 -1.9Z" fill="#49adff"></path></g><g transform="translate(651 267)"><path d="M6.8 -2.2C7.8 1.1 7.2 5 4.8 6.8C2.4 8.6 -1.7 8.3 -4.3 6.3C-6.9 4.3 -8.1 0.7 -7.1 -2.5C-6.1 -5.6 -3.1 -8.3 -0.1 -8.3C2.8 -8.2 5.7 -5.5 6.8 -2.2Z" fill="#49adff"></path></g><g transform="translate(273 196)"><path d="M5 -1.5C5.7 0.4 4.8 2.9 3.1 4.2C1.4 5.4 -1.2 5.4 -2.9 4.1C-4.7 2.8 -5.5 0.4 -4.8 -1.5C-4.2 -3.5 -2.1 -4.9 0 -4.9C2.2 -4.9 4.3 -3.5 5 -1.5Z" fill="#49adff"></path></g><g transform="translate(470 261)"><path d="M5.8 -2C6.7 0.9 6 4.1 3.9 5.8C1.8 7.4 -1.8 7.4 -4.2 5.7C-6.5 4 -7.5 0.6 -6.6 -2.2C-5.7 -5.1 -2.9 -7.4 -0.2 -7.3C2.4 -7.3 4.9 -4.8 5.8 -2Z" fill="#49adff"></path></g><g transform="translate(749 273)"><path d="M4.8 -1.6C5.5 0.7 4.9 3.3 3.2 4.7C1.4 6 -1.5 6 -3.4 4.7C-5.3 3.3 -6.2 0.5 -5.5 -1.8C-4.7 -4 -2.4 -5.8 -0.2 -5.7C2 -5.7 4.1 -3.8 4.8 -1.6Z" fill="#49adff"></path></g><g transform="translate(512 546)"><path d="M6.9 -2.4C7.7 0.2 6.2 3.3 3.8 5C1.4 6.8 -2 7 -4.3 5.5C-6.5 3.9 -7.8 0.5 -6.9 -2.2C-6 -4.9 -3 -6.9 0 -6.9C3.1 -6.9 6.2 -5 6.9 -2.4Z" fill="#49adff"></path></g><g transform="translate(611 92)"><path d="M8 -2.3C9.2 1.2 8.3 5.7 5.6 7.6C2.9 9.5 -1.5 8.9 -4.7 6.6C-7.9 4.3 -9.7 0.2 -8.7 -2.9C-7.7 -6.1 -3.9 -8.5 -0.2 -8.4C3.4 -8.3 6.8 -5.8 8 -2.3Z" fill="#49adff"></path></g><g transform="translate(357 450)"><path d="M6.9 -2.4C7.7 0.3 6.4 3.6 3.9 5.4C1.4 7.3 -2.2 7.6 -4.4 6C-6.6 4.4 -7.4 0.9 -6.4 -2C-5.4 -4.9 -2.7 -7.2 0.1 -7.2C3 -7.3 6 -5.1 6.9 -2.4Z" fill="#49adff"></path></g><g transform="translate(349 147)"><path d="M5.1 -1.6C5.9 0.9 5.5 3.9 3.6 5.2C1.8 6.6 -1.3 6.4 -3.5 4.8C-5.7 3.3 -6.8 0.3 -6.1 -2C-5.3 -4.3 -2.7 -6.1 -0.3 -6C2.1 -5.9 4.3 -4 5.1 -1.6Z" fill="#49adff"></path></g><g transform="translate(190 221)"><path d="M8.9 -2.8C10 0.5 8.3 4.8 5.4 6.8C2.5 8.7 -1.7 8.4 -4.6 6.2C-7.6 4.1 -9.4 0.3 -8.4 -2.9C-7.4 -6 -3.7 -8.4 0.1 -8.4C3.9 -8.4 7.8 -6.1 8.9 -2.8Z" fill="#49adff"></path></g><g transform="translate(119 98)"><path d="M9 -3.2C10 0.2 8.1 4.3 5 6.4C2 8.5 -2.1 8.5 -5.1 6.5C-8.2 4.4 -10.1 0.3 -9 -3.2C-8 -6.7 -4 -9.5 0 -9.5C4 -9.5 8 -6.7 9 -3.2Z" fill="#49adff"></path></g><g transform="translate(308 533)"><path d="M5.9 -1.8C6.9 1 6.3 4.5 4.2 6.1C2.1 7.7 -1.6 7.5 -3.9 5.7C-6.1 4 -7 0.7 -6.1 -2C-5.2 -4.6 -2.6 -6.7 -0.1 -6.7C2.5 -6.7 5 -4.6 5.9 -1.8Z" fill="#49adff"></path></g><g transform="translate(313 84)"><path d="M7.5 -2.5C8.4 0.4 6.9 4 4.4 5.8C1.8 7.6 -1.9 7.6 -4.5 5.8C-7.1 4 -8.6 0.4 -7.6 -2.5C-6.7 -5.4 -3.4 -7.6 0 -7.6C3.3 -7.6 6.5 -5.4 7.5 -2.5Z" fill="#49adff"></path></g><g transform="translate(55 99)"><path d="M6 -1.7C6.9 0.9 6.2 4.2 4 6C1.7 7.7 -2 7.8 -4.1 6.2C-6.2 4.5 -6.7 1.1 -5.7 -1.6C-4.8 -4.3 -2.4 -6.2 0.1 -6.3C2.5 -6.3 5 -4.4 6 -1.7Z" fill="#49adff"></path></g><g transform="translate(661 219)"><path d="M5.8 -1.6C6.6 0.8 5.9 3.9 3.9 5.3C2 6.6 -1.1 6.2 -3.3 4.6C-5.5 3 -6.7 0.2 -6 -2C-5.3 -4.2 -2.6 -5.8 -0.1 -5.8C2.4 -5.7 4.9 -4.1 5.8 -1.6Z" fill="#49adff"></path></g><g transform="translate(328 375)"><path d="M5 -1.9C5.7 0.5 4.9 3.1 3.1 4.4C1.3 5.7 -1.5 5.8 -3.2 4.5C-5 3.2 -5.8 0.5 -5.1 -1.9C-4.4 -4.3 -2.2 -6.5 0 -6.5C2.2 -6.5 4.3 -4.3 5 -1.9Z" fill="#49adff"></path></g><g transform="translate(395 177)"><path d="M6.2 -2C7.1 0.6 6.1 3.8 3.9 5.4C1.7 7 -1.7 7 -4.1 5.4C-6.5 3.7 -7.8 0.3 -7 -2.3C-6.1 -4.9 -3.1 -6.7 -0.2 -6.7C2.7 -6.6 5.4 -4.6 6.2 -2Z" fill="#49adff"></path></g><g transform="translate(455 331)"><path d="M6 -1.8C6.9 0.7 6 3.9 3.9 5.4C1.9 6.9 -1.4 6.7 -3.6 5.1C-5.9 3.5 -7 0.4 -6.2 -2C-5.4 -4.4 -2.7 -6.1 -0.1 -6.1C2.6 -6.1 5.1 -4.3 6 -1.8Z" fill="#49adff"></path></g><g transform="translate(611 373)"><path d="M6.3 -2C7.2 0.7 6.2 4 3.9 5.7C1.7 7.5 -2 7.6 -4.1 6C-6.2 4.4 -6.7 1 -5.8 -1.7C-4.9 -4.4 -2.4 -6.5 0.1 -6.6C2.7 -6.6 5.4 -4.6 6.3 -2Z" fill="#49adff"></path></g><g transform="translate(349 14)"><path d="M4.4 -1.4C5 0.5 4.4 2.8 2.9 4C1.3 5.1 -1.1 4.9 -2.7 3.8C-4.3 2.6 -5 0.4 -4.4 -1.5C-3.8 -3.3 -1.9 -4.7 0 -4.7C1.9 -4.7 3.8 -3.3 4.4 -1.4Z" fill="#49adff"></path></g><g transform="translate(53 197)"><path d="M6.2 -2.3C6.9 0.1 5.5 2.8 3.3 4.4C1 6 -2 6.5 -4 5.1C-6 3.7 -7.1 0.6 -6.2 -2C-5.4 -4.6 -2.7 -6.6 0 -6.7C2.8 -6.7 5.5 -4.7 6.2 -2.3Z" fill="#49adff"></path></g><g transform="translate(178 546)"><path d="M8 -2.9C9.1 0.7 7.7 4.7 4.9 6.7C2.2 8.7 -2.1 8.7 -5.2 6.6C-8.2 4.5 -10.2 0.2 -9.2 -3.3C-8.1 -6.9 -4.1 -9.9 -0.3 -9.8C3.5 -9.7 6.9 -6.6 8 -2.9Z" fill="#49adff"></path></g><g transform="translate(797 496)"><path d="M7.5 -2.4C8.5 0.8 7.4 4.8 4.8 6.7C2.1 8.7 -2.1 8.6 -4.7 6.7C-7.3 4.7 -8.4 0.8 -7.3 -2.4C-6.3 -5.5 -3.1 -8 0 -8C3.2 -8 6.4 -5.6 7.5 -2.4Z" fill="#49adff"></path></g><g transform="translate(712 8)"><path d="M5 -1.7C5.6 0.3 4.7 2.7 3 3.9C1.3 5.1 -1.1 5 -2.6 3.9C-4.1 2.7 -4.6 0.5 -4 -1.4C-3.4 -3.4 -1.7 -5.2 0.2 -5.3C2.2 -5.3 4.4 -3.7 5 -1.7Z" fill="#49adff"></path></g><g transform="translate(26 599)"><path d="M7.3 -2.4C8.4 0.8 7.3 4.6 4.5 6.8C1.8 8.9 -2.7 9.4 -5.3 7.4C-7.9 5.5 -8.8 1.2 -7.6 -2.2C-6.4 -5.7 -3.2 -8.2 0 -8.2C3.1 -8.2 6.3 -5.6 7.3 -2.4Z" fill="#49adff"></path></g><g transform="translate(490 353)"><path d="M6.3 -1.8C7.4 1.2 6.9 5.1 4.8 6.6C2.7 8.2 -1.1 7.5 -3.9 5.5C-6.6 3.4 -8.3 0.1 -7.5 -2.6C-6.7 -5.4 -3.3 -7.5 -0.3 -7.4C2.6 -7.3 5.3 -4.9 6.3 -1.8Z" fill="#49adff"></path></g><g transform="translate(630 345)"><path d="M8.5 -2.6C9.5 0.3 7.8 4.3 4.9 6.3C2 8.3 -2 8.3 -4.7 6.4C-7.5 4.4 -9 0.5 -8 -2.5C-7 -5.4 -3.5 -7.5 0.1 -7.5C3.8 -7.6 7.5 -5.6 8.5 -2.6Z" fill="#49adff"></path></g><g transform="translate(521 261)"><path d="M7.7 -2.5C8.7 0.5 7.3 4.3 4.7 6.2C2 8.1 -1.9 8.1 -4.3 6.3C-6.6 4.5 -7.3 1 -6.3 -2C-5.3 -5 -2.7 -7.3 0.4 -7.5C3.4 -7.6 6.7 -5.4 7.7 -2.5Z" fill="#49adff"></path></g><g transform="translate(574 294)"><path d="M7.5 -2.4C8.5 0.6 7.2 4.4 4.6 6.3C2 8.2 -2 8.2 -4.5 6.3C-7 4.5 -8 0.8 -7 -2.2C-6 -5.2 -3 -7.4 0.1 -7.5C3.3 -7.5 6.5 -5.3 7.5 -2.4Z" fill="#49adff"></path></g><g transform="translate(542 30)"><path d="M6.7 -2.3C7.5 0.3 6.1 3.4 3.9 5C1.6 6.6 -1.6 6.5 -3.7 5C-5.8 3.5 -6.8 0.5 -6 -2.1C-5.2 -4.6 -2.6 -6.7 0.2 -6.8C2.9 -6.8 5.9 -4.9 6.7 -2.3Z" fill="#49adff"></path></g><g transform="translate(72 175)"><path d="M7 -2.3C7.9 0.5 6.7 4 4.3 5.7C1.8 7.4 -1.7 7.3 -4 5.6C-6.3 3.9 -7.3 0.6 -6.4 -2.1C-5.6 -4.9 -2.8 -7 0.1 -7.1C3.1 -7.1 6.1 -5 7 -2.3Z" fill="#49adff"></path></g><g transform="translate(524 308)"><path d="M8.6 -3C9.7 0.5 8.1 4.7 5.2 6.7C2.3 8.7 -1.8 8.4 -4.6 6.4C-7.4 4.4 -8.8 0.5 -7.8 -2.9C-6.9 -6.4 -3.4 -9.4 0.2 -9.5C3.8 -9.5 7.5 -6.6 8.6 -3Z" fill="#49adff"></path></g><g transform="translate(681 370)"><path d="M5.2 -1.8C5.9 0.6 5.2 3.4 3.4 4.7C1.6 6 -1.2 5.8 -3.1 4.4C-5 3 -5.9 0.4 -5.2 -1.9C-4.5 -4.2 -2.3 -6.2 0 -6.2C2.2 -6.2 4.4 -4.2 5.2 -1.8Z" fill="#49adff"></path></g><g transform="translate(331 302)"><path d="M4.5 -1.4C5.1 0.4 4.3 2.6 2.8 3.7C1.2 4.8 -1.1 4.7 -2.7 3.5C-4.3 2.4 -5.3 0.2 -4.7 -1.5C-4.2 -3.2 -2.1 -4.4 -0.1 -4.4C2 -4.4 3.9 -3.1 4.5 -1.4Z" fill="#49adff"></path></g><g transform="translate(800 128)"><path d="M8.2 -2.3C9.4 0.9 8.2 5.3 5.3 7.5C2.4 9.6 -2.3 9.6 -5.2 7.4C-8.1 5.2 -9.3 0.9 -8.1 -2.3C-7 -5.5 -3.5 -7.6 0 -7.6C3.5 -7.6 7 -5.5 8.2 -2.3Z" fill="#49adff"></path></g><g transform="translate(837 111)"><path d="M5.4 -1.5C6.3 0.8 5.6 3.8 3.6 5.4C1.6 7 -1.8 7.1 -3.9 5.6C-6 4 -6.7 0.8 -5.8 -1.5C-5 -3.9 -2.5 -5.3 -0.1 -5.3C2.3 -5.3 4.6 -3.8 5.4 -1.5Z" fill="#49adff"></path></g><g transform="translate(368 62)"><path d="M7.9 -2.6C9 0.9 7.8 5 5.1 7C2.3 9 -2 8.9 -5.1 6.7C-8.2 4.6 -10 0.4 -9 -3C-7.9 -6.4 -3.9 -9 -0.3 -8.9C3.4 -8.8 6.7 -6 7.9 -2.6Z" fill="#49adff"></path></g><g transform="translate(378 572)"><path d="M6 -2.2C6.6 0.2 5.4 2.9 3.2 4.5C1 6.1 -2 6.6 -3.8 5.3C-5.6 4 -6.1 0.9 -5.3 -1.7C-4.4 -4.3 -2.2 -6.3 0.2 -6.4C2.6 -6.5 5.3 -4.5 6 -2.2Z" fill="#49adff"></path></g><g transform="translate(637 551)"><path d="M4.7 -1.6C5.3 0.6 4.7 3.1 3.1 4.3C1.4 5.5 -1.2 5.4 -3 4.1C-4.8 2.8 -5.8 0.3 -5.1 -1.8C-4.5 -4 -2.2 -5.8 -0.1 -5.8C2 -5.7 4 -3.8 4.7 -1.6Z" fill="#49adff"></path></g><g transform="translate(826 381)"><path d="M6.2 -2.3C7.1 0.8 6.3 4.1 4 5.8C1.7 7.6 -2 7.7 -4.4 5.9C-6.9 4.2 -8.2 0.5 -7.2 -2.6C-6.3 -5.7 -3.1 -8.3 -0.2 -8.2C2.7 -8.1 5.3 -5.3 6.2 -2.3Z" fill="#49adff"></path></g><g transform="translate(399 384)"><path d="M7.4 -2.1C8.6 1.1 7.7 5.3 4.9 7.5C2.1 9.8 -2.7 10.1 -5.5 8C-8.2 5.9 -8.9 1.4 -7.6 -2C-6.4 -5.4 -3.2 -7.7 0 -7.7C3.1 -7.7 6.3 -5.4 7.4 -2.1Z" fill="#49adff"></path></g><g transform="translate(111 142)"><path d="M4.9 -1.6C5.6 0.7 5 3.4 3.3 4.7C1.5 6.1 -1.4 6 -3.1 4.7C-4.9 3.3 -5.4 0.7 -4.7 -1.6C-4 -3.9 -2 -5.9 0 -6C2.1 -6 4.1 -4 4.9 -1.6Z" fill="#49adff"></path></g><g transform="translate(565 4)"><path d="M7.4 -2.2C8.4 0.7 7.2 4.4 4.7 6.1C2.3 7.8 -1.4 7.4 -4 5.5C-6.5 3.6 -7.9 0.3 -7.1 -2.4C-6.3 -5.1 -3.1 -7.1 0 -7.1C3.2 -7.1 6.4 -5.1 7.4 -2.2Z" fill="#49adff"></path></g><g transform="translate(464 147)"><path d="M7.4 -2.6C8.5 0.9 7.4 4.9 4.7 7.1C1.9 9.2 -2.6 9.6 -5.7 7.4C-8.8 5.3 -10.3 0.7 -9.1 -3C-7.9 -6.7 -4 -9.5 -0.4 -9.4C3.2 -9.3 6.3 -6.2 7.4 -2.6Z" fill="#49adff"></path></g><g transform="translate(833 3)"><path d="M5.9 -1.7C6.8 1.1 6.3 4.5 4.1 6.2C1.9 7.9 -1.9 7.9 -4.1 6.2C-6.3 4.5 -6.8 1 -5.8 -1.7C-4.9 -4.4 -2.4 -6.4 0 -6.4C2.5 -6.4 4.9 -4.4 5.9 -1.7Z" fill="#49adff"></path></g><g transform="translate(739 134)"><path d="M8.6 -2.7C9.8 0.8 8.4 5.3 5.6 7.2C2.8 9.1 -1.5 8.5 -4.2 6.4C-7 4.3 -8.2 0.6 -7.2 -2.6C-6.3 -5.8 -3.1 -8.5 0.3 -8.6C3.7 -8.7 7.4 -6.1 8.6 -2.7Z" fill="#49adff"></path></g><g transform="translate(830 54)"><path d="M8.3 -2.3C9.4 0.7 8 5 5.1 7.2C2.1 9.3 -2.4 9.5 -5 7.5C-7.6 5.4 -8.3 1.3 -7.1 -1.9C-6 -5 -3 -7.1 0.3 -7.2C3.6 -7.3 7.2 -5.4 8.3 -2.3Z" fill="#49adff"></path></g><g transform="translate(378 243)"><path d="M5.3 -1.5C6.2 0.8 5.6 3.8 3.7 5.2C1.8 6.7 -1.4 6.5 -3.5 5C-5.6 3.4 -6.6 0.5 -5.9 -1.7C-5.1 -3.9 -2.5 -5.4 -0.1 -5.3C2.3 -5.3 4.5 -3.7 5.3 -1.5Z" fill="#49adff"></path></g><g transform="translate(897 490)"><path d="M8.2 -3C9.2 0.1 7.3 3.9 4.5 5.9C1.6 7.9 -2.3 8.2 -4.7 6.5C-7.1 4.7 -8 0.9 -6.9 -2.3C-5.9 -5.6 -3 -8.4 0.4 -8.5C3.7 -8.6 7.3 -6.1 8.2 -3Z" fill="#49adff"></path></g><g transform="translate(271 350)"><path d="M6.4 -2C7.3 0.6 6.3 3.9 4.1 5.4C1.9 7 -1.5 6.8 -3.5 5.2C-5.6 3.7 -6.3 0.7 -5.5 -1.8C-4.7 -4.3 -2.3 -6.3 0.2 -6.4C2.8 -6.4 5.6 -4.6 6.4 -2Z" fill="#49adff"></path></g><g transform="translate(79 396)"><path d="M4.9 -1.6C5.7 0.6 5 3.3 3.3 4.5C1.7 5.7 -1 5.3 -2.8 4C-4.6 2.7 -5.5 0.3 -4.9 -1.8C-4.2 -3.9 -2.1 -5.7 0 -5.7C2.1 -5.7 4.2 -3.9 4.9 -1.6Z" fill="#49adff"></path></g><g transform="translate(184 279)"><path d="M5 -1.5C5.7 0.6 5 3.2 3.1 4.6C1.3 6 -1.6 6.1 -3.3 4.8C-5 3.6 -5.4 0.8 -4.6 -1.3C-3.9 -3.4 -1.9 -4.9 0.1 -5C2.1 -5 4.3 -3.6 5 -1.5Z" fill="#49adff"></path></g><g transform="translate(141 319)"><path d="M4.4 -1.3C5 0.5 4.3 2.7 2.8 3.8C1.4 4.9 -1 4.7 -2.7 3.5C-4.4 2.3 -5.5 0.1 -5 -1.6C-4.4 -3.3 -2.2 -4.5 -0.2 -4.4C1.9 -4.3 3.7 -3.1 4.4 -1.3Z" fill="#49adff"></path></g><g transform="translate(21 454)"><path d="M7 -2.3C7.9 0.4 6.6 3.8 4.2 5.5C1.9 7.1 -1.5 6.9 -3.6 5.3C-5.8 3.6 -6.7 0.6 -5.8 -2.1C-5 -4.7 -2.5 -7 0.3 -7.1C3.1 -7.2 6.2 -5.1 7 -2.3Z" fill="#49adff"></path></g><g transform="translate(864 67)"><path d="M4.5 -1.6C5.1 0.4 4.3 2.6 2.8 3.7C1.3 4.8 -1 4.7 -2.6 3.5C-4.2 2.4 -5.2 0.2 -4.6 -1.7C-4.1 -3.6 -2 -5.3 0 -5.3C2 -5.3 3.9 -3.6 4.5 -1.6Z" fill="#49adff"></path></g><g transform="translate(605 16)"><path d="M5.9 -2C6.8 0.6 5.8 3.7 3.8 5.1C1.8 6.6 -1.4 6.4 -3.5 4.9C-5.6 3.3 -6.6 0.4 -5.8 -2C-5.1 -4.5 -2.5 -6.5 0 -6.5C2.6 -6.5 5.1 -4.5 5.9 -2Z" fill="#49adff"></path></g><g transform="translate(295 305)"><path d="M4.8 -1.6C5.5 0.7 5 3.5 3.2 4.8C1.5 6.2 -1.5 6.2 -3.4 4.8C-5.4 3.3 -6.3 0.5 -5.5 -1.8C-4.8 -4.2 -2.4 -6 -0.2 -6C2 -5.9 4 -3.9 4.8 -1.6Z" fill="#49adff"></path></g><g transform="translate(557 381)"><path d="M7 -2.3C7.9 0.5 6.7 4 4.3 5.6C1.9 7.3 -1.6 7.1 -4.1 5.4C-6.5 3.6 -8 0.3 -7.2 -2.5C-6.3 -5.2 -3.2 -7.4 0 -7.4C3.1 -7.3 6.1 -5.2 7 -2.3Z" fill="#49adff"></path></g><g transform="translate(223 473)"><path d="M5.1 -1.7C5.8 0.3 4.8 2.7 2.8 4.1C0.9 5.6 -1.9 6 -3.7 4.7C-5.6 3.5 -6.6 0.5 -5.8 -1.7C-5 -3.8 -2.5 -5.2 -0.1 -5.2C2.3 -5.1 4.5 -3.7 5.1 -1.7Z" fill="#49adff"></path></g><g transform="translate(885 403)"><path d="M5.7 -1.7C6.5 0.5 5.5 3.3 3.6 4.6C1.7 6 -1.2 5.7 -3.1 4.3C-5.1 2.9 -6.2 0.3 -5.5 -1.8C-4.9 -3.8 -2.4 -5.1 0 -5.2C2.5 -5.2 5 -3.8 5.7 -1.7Z" fill="#49adff"></path></g><g transform="translate(410 74)"><path d="M5.4 -1.6C6.2 0.6 5.5 3.6 3.5 5.1C1.5 6.6 -1.8 6.8 -3.7 5.3C-5.6 3.9 -6.2 0.8 -5.3 -1.5C-4.5 -3.9 -2.3 -5.6 0 -5.6C2.3 -5.6 4.7 -3.9 5.4 -1.6Z" fill="#49adff"></path></g><g transform="translate(187 28)"><path d="M6.3 -1.7C7.2 0.7 6.2 4 4.2 5.4C2.1 6.8 -1.1 6.3 -3.3 4.6C-5.6 3 -6.9 0.2 -6.2 -2C-5.5 -4.2 -2.7 -5.7 0 -5.7C2.7 -5.7 5.4 -4.2 6.3 -1.7Z" fill="#49adff"></path></g><g transform="translate(433 4)"><path d="M7.7 -2.9C8.6 0.1 6.8 3.5 4 5.5C1.2 7.6 -2.6 8.2 -5 6.5C-7.4 4.8 -8.5 0.9 -7.4 -2.4C-6.3 -5.7 -3.2 -8.4 0.1 -8.4C3.4 -8.4 6.9 -5.9 7.7 -2.9Z" fill="#49adff"></path></g><g transform="translate(418 576)"><path d="M4.8 -1.5C5.5 0.6 4.8 3.1 3.1 4.4C1.5 5.6 -1.2 5.5 -3.2 4.1C-5.1 2.7 -6.4 0.1 -5.7 -1.8C-5.1 -3.8 -2.5 -5.1 -0.2 -5C2.1 -5 4.1 -3.5 4.8 -1.5Z" fill="#49adff"></path></g><g transform="translate(829 274)"><path d="M7.9 -2.7C8.8 0.2 7.1 3.8 4.4 5.7C1.6 7.7 -2.1 7.9 -4.7 6.1C-7.2 4.3 -8.5 0.6 -7.5 -2.4C-6.6 -5.4 -3.3 -7.7 0.1 -7.7C3.5 -7.8 7 -5.6 7.9 -2.7Z" fill="#49adff"></path></g><g transform="translate(81 271)"><path d="M8.8 -2.6C9.9 0.7 8.5 5.2 5.4 7.4C2.4 9.6 -2.3 9.6 -5 7.5C-7.8 5.4 -8.6 1.2 -7.4 -2.1C-6.3 -5.5 -3.1 -7.8 0.3 -8C3.8 -8.1 7.6 -5.9 8.8 -2.6Z" fill="#49adff"></path></g><g transform="translate(6 53)"><path d="M6.6 -2.2C7.3 0.2 5.9 3.2 3.7 4.7C1.5 6.2 -1.5 6.2 -3.5 4.8C-5.6 3.3 -6.6 0.4 -5.9 -1.9C-5.1 -4.3 -2.6 -6 0.2 -6.1C2.9 -6.2 5.8 -4.5 6.6 -2.2Z" fill="#49adff"></path></g><g transform="translate(45 160)"><path d="M9.3 -3.1C10.4 0.3 8.4 4.6 5.3 6.8C2.2 8.9 -2.2 8.9 -5.1 6.8C-8 4.7 -9.6 0.6 -8.5 -2.9C-7.4 -6.3 -3.7 -9 0.2 -9.1C4.1 -9.2 8.2 -6.6 9.3 -3.1Z" fill="#49adff"></path></g><g transform="translate(270 451)"><path d="M6.5 -1.9C7.3 0.3 6 3.4 3.8 5C1.5 6.7 -1.7 6.8 -3.7 5.3C-5.6 3.9 -6.1 0.8 -5.3 -1.5C-4.5 -3.8 -2.2 -5.4 0.3 -5.5C2.9 -5.6 5.7 -4.2 6.5 -1.9Z" fill="#49adff"></path></g><g transform="translate(413 289)"><path d="M5.1 -1.7C5.8 0.4 4.9 3 3.2 4.2C1.5 5.4 -1.1 5.2 -2.8 4C-4.5 2.7 -5.4 0.3 -4.8 -1.7C-4.2 -3.8 -2.1 -5.5 0.1 -5.5C2.2 -5.6 4.5 -3.9 5.1 -1.7Z" fill="#49adff"></path></g><g transform="translate(217 542)"><path d="M6 -2.3C6.7 0.1 5.4 2.9 3.2 4.5C1 6.1 -2 6.6 -4 5.2C-5.9 3.9 -6.8 0.7 -5.9 -2C-5.1 -4.6 -2.5 -6.7 0.1 -6.8C2.7 -6.8 5.4 -4.7 6 -2.3Z" fill="#49adff"></path></g><g transform="translate(568 410)"><path d="M5.2 -1.6C6 0.9 5.5 3.8 3.5 5.4C1.6 6.9 -1.7 6.9 -3.7 5.4C-5.7 3.9 -6.3 0.8 -5.4 -1.6C-4.6 -4.1 -2.3 -5.9 -0.1 -5.9C2.2 -5.9 4.3 -4 5.2 -1.6Z" fill="#49adff"></path></g><g transform="translate(648 453)"><path d="M7.8 -2.6C8.7 0.1 6.9 3.6 4.1 5.5C1.3 7.5 -2.4 8 -4.7 6.4C-7.1 4.7 -7.9 0.9 -6.9 -2C-5.9 -4.9 -2.9 -6.8 0.3 -6.9C3.5 -7 7 -5.2 7.8 -2.6Z" fill="#49adff"></path></g><g transform="translate(124 481)"><path d="M4.5 -1.6C5.1 0.3 4.2 2.5 2.7 3.6C1.2 4.6 -1 4.6 -2.6 3.5C-4.1 2.4 -4.9 0.3 -4.4 -1.6C-3.8 -3.5 -1.9 -5.1 0 -5.1C2 -5.1 3.9 -3.5 4.5 -1.6Z" fill="#49adff"></path></g><g transform="translate(223 199)"><path d="M4.8 -1.6C5.4 0.3 4.5 2.6 2.8 3.8C1.2 4.9 -1.2 5 -2.7 3.8C-4.2 2.7 -4.9 0.5 -4.3 -1.4C-3.7 -3.3 -1.8 -4.7 0.1 -4.8C2.1 -4.8 4.2 -3.4 4.8 -1.6Z" fill="#49adff"></path></g><g transform="translate(441 415)"><path d="M7 -2.4C8 1.1 7.3 5 4.8 6.9C2.3 8.8 -1.9 8.6 -4.9 6.5C-7.9 4.4 -9.6 0.4 -8.6 -3.1C-7.6 -6.5 -3.8 -9.2 -0.4 -9.1C2.9 -8.9 5.9 -5.9 7 -2.4Z" fill="#49adff"></path></g><g transform="translate(614 490)"><path d="M7.3 -2.5C8.3 0.7 7.1 4.5 4.6 6.4C2 8.3 -2 8.3 -4.6 6.4C-7.2 4.5 -8.3 0.7 -7.3 -2.5C-6.3 -5.7 -3.1 -8.3 0 -8.3C3.1 -8.3 6.2 -5.6 7.3 -2.5Z" fill="#49adff"></path></g><g transform="translate(788 531)"><path d="M7.7 -2.7C8.8 0.9 7.7 5 4.9 7.1C2.1 9.3 -2.4 9.4 -5.4 7.2C-8.5 5 -10.2 0.6 -9 -3.1C-7.9 -6.7 -3.9 -9.6 -0.3 -9.5C3.3 -9.4 6.6 -6.3 7.7 -2.7Z" fill="#49adff"></path></g><g transform="translate(706 478)"><path d="M7.9 -2.4C9 0.7 7.7 4.8 4.9 6.8C2.1 8.9 -2.2 8.9 -4.7 6.9C-7.3 4.9 -8.2 1 -7.1 -2.1C-6.1 -5.3 -3 -7.6 0.2 -7.7C3.4 -7.7 6.9 -5.5 7.9 -2.4Z" fill="#49adff"></path></g><g transform="translate(880 237)"><path d="M5.6 -1.7C6.4 0.8 5.7 3.9 3.8 5.3C1.8 6.8 -1.4 6.6 -3.7 5C-5.9 3.3 -7.2 0.3 -6.5 -2.2C-5.7 -4.6 -2.8 -6.4 -0.2 -6.3C2.4 -6.2 4.7 -4.3 5.6 -1.7Z" fill="#49adff"></path></g><g transform="translate(46 28)"><path d="M4.2 -1.4C4.7 0.4 4.1 2.5 2.5 3.6C1 4.8 -1.3 4.9 -2.9 3.8C-4.4 2.7 -5.1 0.4 -4.5 -1.4C-3.9 -3.3 -2 -4.7 -0.1 -4.6C1.8 -4.6 3.6 -3.2 4.2 -1.4Z" fill="#49adff"></path></g><g transform="translate(734 205)"><path d="M7.5 -2.7C8.5 0.7 7.3 4.6 4.7 6.4C2.1 8.3 -1.9 8.2 -4.5 6.3C-7.1 4.4 -8.2 0.7 -7.2 -2.7C-6.3 -6 -3.1 -9 0 -9C3.2 -9 6.4 -6.1 7.5 -2.7Z" fill="#49adff"></path></g><g transform="translate(287 145)"><path d="M7.3 -2.4C8.2 0.5 6.9 4.2 4.5 5.9C2 7.7 -1.7 7.6 -4 5.9C-6.3 4.1 -7.2 0.7 -6.3 -2.2C-5.4 -5.1 -2.7 -7.5 0.2 -7.6C3.2 -7.7 6.3 -5.4 7.3 -2.4Z" fill="#49adff"></path></g><g transform="translate(871 176)"><path d="M6.3 -2.2C7 0.3 5.8 3.2 3.6 4.8C1.4 6.4 -1.8 6.5 -3.9 5.1C-5.9 3.6 -7 0.5 -6.2 -2C-5.4 -4.6 -2.7 -6.6 0 -6.6C2.8 -6.6 5.5 -4.7 6.3 -2.2Z" fill="#49adff"></path></g><g transform="translate(254 10)"><path d="M4.3 -1.3C4.9 0.4 4.2 2.6 2.7 3.7C1.2 4.7 -1 4.6 -2.6 3.5C-4.1 2.4 -5 0.2 -4.5 -1.4C-3.9 -3.1 -2 -4.3 0 -4.3C1.9 -4.3 3.7 -3.1 4.3 -1.3Z" fill="#49adff"></path></g><g transform="translate(75 553)"><path d="M7.4 -2.7C8.4 0.5 7 4.1 4.4 6.1C1.7 8 -2.3 8.3 -4.7 6.5C-7.2 4.7 -8.1 0.9 -7.1 -2.4C-6.1 -5.7 -3 -8.5 0.1 -8.6C3.2 -8.6 6.5 -5.9 7.4 -2.7Z" fill="#49adff"></path></g><g transform="translate(311 586)"><path d="M4.1 -1.3C4.7 0.6 4.2 2.8 2.7 4C1.1 5.2 -1.4 5.4 -2.9 4.2C-4.4 3.1 -4.9 0.7 -4.2 -1.2C-3.6 -3.1 -1.8 -4.5 0 -4.5C1.7 -4.5 3.5 -3.1 4.1 -1.3Z" fill="#49adff"></path></g><g transform="translate(254 300)"><path d="M5.2 -1.7C5.9 0.2 4.8 2.7 2.9 4.1C1.1 5.4 -1.6 5.7 -3.5 4.4C-5.3 3.1 -6.4 0.4 -5.7 -1.7C-4.9 -3.7 -2.5 -5 -0.1 -5C2.3 -5 4.6 -3.6 5.2 -1.7Z" fill="#49adff"></path></g><g transform="translate(823 322)"><path d="M6.1 -2.1C6.9 0.6 6 3.8 4 5.3C1.9 6.7 -1.2 6.4 -3.4 4.8C-5.6 3.2 -6.7 0.3 -6 -2.2C-5.2 -4.8 -2.6 -7 0 -7C2.6 -7 5.2 -4.8 6.1 -2.1Z" fill="#49adff"></path></g><g transform="translate(599 126)"><path d="M7.9 -2.6C9 0.8 7.8 4.9 5 7C2.2 9 -2.1 9 -4.8 7C-7.4 4.9 -8.3 1 -7.2 -2.4C-6.1 -5.8 -3.1 -8.7 0.2 -8.7C3.4 -8.8 6.8 -6.1 7.9 -2.6Z" fill="#49adff"></path></g><g transform="translate(161 458)"><path d="M9.3 -2.6C10.6 0.9 9.1 5.7 6.1 7.7C3.1 9.8 -1.5 9 -4.5 6.7C-7.4 4.4 -8.8 0.6 -7.8 -2.5C-6.8 -5.6 -3.4 -8 0.3 -8.1C4 -8.2 8 -6 9.3 -2.6Z" fill="#49adff"></path></g><g transform="translate(29 552)"><path d="M3.9 -1.2C4.5 0.5 4 2.7 2.6 3.7C1.3 4.8 -1 4.7 -2.6 3.5C-4.1 2.4 -4.9 0.3 -4.4 -1.4C-3.8 -3.1 -1.9 -4.3 -0.1 -4.3C1.7 -4.2 3.3 -2.9 3.9 -1.2Z" fill="#49adff"></path></g><g transform="translate(720 61)"><path d="M6.5 -2.2C7.3 0.5 6.2 3.8 3.8 5.7C1.3 7.7 -2.6 8.2 -5.1 6.5C-7.7 4.8 -9 0.7 -8 -2.3C-6.9 -5.4 -3.4 -7.4 -0.3 -7.3C2.8 -7.2 5.6 -5 6.5 -2.2Z" fill="#49adff"></path></g><g transform="translate(513 449)"><path d="M7.1 -2.5C7.9 0.3 6.5 3.7 4 5.5C1.4 7.4 -2.2 7.8 -4.8 6C-7.4 4.3 -8.9 0.5 -7.9 -2.6C-6.9 -5.6 -3.5 -7.8 -0.2 -7.8C3.1 -7.7 6.2 -5.4 7.1 -2.5Z" fill="#49adff"></path></g><g transform="translate(719 566)"><path d="M7.8 -2.8C8.8 0.4 7.2 4.1 4.5 6C1.8 7.9 -2 8 -4.9 6.1C-7.7 4.2 -9.5 0.2 -8.6 -3C-7.6 -6.3 -3.8 -8.9 -0.2 -8.8C3.5 -8.7 6.9 -6.1 7.8 -2.8Z" fill="#49adff"></path></g><g transform="translate(707 120)"><path d="M8.1 -2.7C9.1 0.8 7.9 4.9 5.1 6.9C2.3 8.8 -1.9 8.6 -4.6 6.6C-7.3 4.6 -8.4 0.7 -7.4 -2.6C-6.4 -5.9 -3.2 -8.7 0.1 -8.8C3.5 -8.8 7 -6.1 8.1 -2.7Z" fill="#49adff"></path></g></g></svg>