<svg id="visual" viewBox="0 0 900 600" width="900" height="600" xmlns="http://www.w3.org/2000/svg" xmlns:xlink="http://www.w3.org/1999/xlink" version="1.1"><rect width="900" height="600" fill="#FFFFFF"></rect><g><g transform="translate(857 528)"><path d="M9.2 -3.3C10.3 0.4 8.4 4.7 5.3 6.8C2.2 9 -2.2 9 -5.1 6.9C-8.1 4.8 -9.7 0.6 -8.6 -3.1C-7.5 -6.7 -3.7 -9.8 0.2 -9.8C4.1 -9.9 8.1 -6.9 9.2 -3.3Z" fill="#74c0ff"></path></g><g transform="translate(44 404)"><path d="M4 -1.3C4.5 0.2 3.8 2.2 2.4 3.2C0.9 4.3 -1.1 4.3 -2.4 3.4C-3.8 2.4 -4.3 0.4 -3.7 -1.2C-3.2 -2.7 -1.6 -3.9 0.1 -3.9C1.8 -4 3.5 -2.8 4 -1.3Z" fill="#74c0ff"></path></g><g transform="translate(470 564)"><path d="M5.8 -2.2C6.6 0.4 5.5 3.3 3.3 5.1C1.1 6.8 -2.4 7.4 -4.3 6C-6.3 4.6 -6.7 1.1 -5.8 -1.8C-4.8 -4.7 -2.4 -7.1 0.1 -7.1C2.5 -7.2 5 -4.8 5.8 -2.2Z" fill="#74c0ff"></path></g><g transform="translate(128 86)"><path d="M4.4 -1.4C5 0.3 4.2 2.5 2.7 3.5C1.2 4.6 -1 4.5 -2.7 3.4C-4.3 2.3 -5.3 0.1 -4.8 -1.5C-4.2 -3.2 -2.1 -4.4 -0.1 -4.4C1.9 -4.3 3.9 -3.1 4.4 -1.4Z" fill="#74c0ff"></path></g><g transform="translate(840 116)"><path d="M6.6 -2.1C7.5 0.6 6.5 4 4.2 5.7C1.8 7.4 -1.7 7.3 -4.1 5.6C-6.5 3.9 -7.7 0.5 -6.8 -2.2C-5.9 -4.9 -2.9 -7 0 -7C2.9 -7 5.7 -4.9 6.6 -2.1Z" fill="#74c0ff"></path></g><g transform="translate(303 288)"><path d="M5.8 -1.9C6.5 0.4 5.5 3.2 3.5 4.6C1.6 6 -1.3 5.9 -3.2 4.5C-5.1 3.1 -6.1 0.4 -5.4 -1.8C-4.7 -4 -2.3 -5.7 0.1 -5.7C2.5 -5.7 5.1 -4.1 5.8 -1.9Z" fill="#74c0ff"></path></g><g transform="translate(469 221)"><path d="M8.3 -2.3C9.4 0.7 8 5 5.2 7C2.3 9 -2 8.9 -4.9 6.8C-7.8 4.7 -9.2 0.6 -8.1 -2.4C-7.1 -5.3 -3.5 -7.2 0 -7.2C3.6 -7.2 7.2 -5.4 8.3 -2.3Z" fill="#74c0ff"></path></g><g transform="translate(564 354)"><path d="M4.9 -1.8C5.4 0 4.3 2.2 2.6 3.3C1 4.4 -1.2 4.5 -2.7 3.4C-4.3 2.4 -5.3 0.2 -4.7 -1.6C-4.2 -3.5 -2.1 -4.9 0 -4.9C2.2 -4.9 4.4 -3.5 4.9 -1.8Z" fill="#74c0ff"></path></g><g transform="translate(347 341)"><path d="M6.3 -2C7.1 0.5 6 3.7 3.7 5.5C1.3 7.3 -2.4 7.9 -4.9 6.2C-7.3 4.5 -8.6 0.7 -7.5 -2.1C-6.5 -4.9 -3.3 -6.7 -0.3 -6.6C2.7 -6.5 5.5 -4.6 6.3 -2Z" fill="#74c0ff"></path></g><g transform="translate(307 5)"><path d="M5.4 -1.5C6.2 0.5 5.3 3.4 3.5 4.7C1.7 5.9 -1.1 5.7 -3 4.3C-4.9 2.8 -6 0.3 -5.3 -1.7C-4.7 -3.6 -2.3 -5 0 -5C2.3 -5 4.7 -3.6 5.4 -1.5Z" fill="#74c0ff"></path></g><g transform="translate(220 584)"><path d="M7.1 -2.3C8 0.4 6.6 3.8 4 5.7C1.5 7.5 -2.2 7.9 -4.5 6.2C-6.7 4.6 -7.4 1 -6.4 -1.9C-5.4 -4.8 -2.7 -7 0.2 -7C3.1 -7.1 6.2 -5.1 7.1 -2.3Z" fill="#74c0ff"></path></g><g transform="translate(86 429)"><path d="M4.3 -1.3C4.9 0.3 4.1 2.4 2.7 3.4C1.3 4.3 -0.7 4 -2.1 3C-3.5 1.9 -4.4 0.1 -3.9 -1.4C-3.5 -2.8 -1.7 -4 0.1 -4C1.9 -4 3.8 -2.9 4.3 -1.3Z" fill="#74c0ff"></path></g><g transform="translate(48 462)"><path d="M6.9 -2.2C7.8 0.7 6.7 4.2 4.4 5.8C2.1 7.5 -1.5 7.2 -3.9 5.4C-6.4 3.6 -7.8 0.3 -7 -2.4C-6.2 -5.1 -3.1 -7.2 -0.1 -7.2C3 -7.2 5.9 -5 6.9 -2.2Z" fill="#74c0ff"></path></g><g transform="translate(749 335)"><path d="M5.1 -1.6C5.7 0.3 4.7 2.8 2.9 4.2C1.1 5.5 -1.7 5.8 -3.4 4.6C-5.2 3.4 -5.9 0.6 -5.1 -1.4C-4.4 -3.5 -2.2 -4.9 0 -4.9C2.2 -4.9 4.4 -3.5 5.1 -1.6Z" fill="#74c0ff"></path></g><g transform="translate(838 327)"><path d="M5.7 -1.9C6.5 0.6 5.6 3.5 3.7 4.9C1.7 6.3 -1.3 6.1 -3.4 4.6C-5.5 3.1 -6.7 0.3 -5.9 -2.1C-5.2 -4.4 -2.6 -6.3 -0.1 -6.3C2.5 -6.2 4.9 -4.3 5.7 -1.9Z" fill="#74c0ff"></path></g><g transform="translate(504 290)"><path d="M7.6 -2.2C8.7 0.7 7.5 4.6 4.7 6.7C2 8.7 -2.3 8.9 -5.1 6.9C-8 4.8 -9.4 0.7 -8.3 -2.4C-7.2 -5.4 -3.6 -7.3 -0.1 -7.2C3.3 -7.2 6.6 -5.2 7.6 -2.2Z" fill="#74c0ff"></path></g><g transform="translate(215 174)"><path d="M6.8 -2C7.9 1 7.1 4.9 4.7 6.7C2.3 8.5 -1.8 8.3 -4.4 6.3C-7.1 4.3 -8.3 0.6 -7.3 -2.3C-6.4 -5.2 -3.2 -7.3 -0.2 -7.2C2.9 -7.2 5.7 -5 6.8 -2Z" fill="#74c0ff"></path></g><g transform="translate(360 379)"><path d="M7 -2.3C7.8 0.2 6.3 3.5 4 5.1C1.6 6.7 -1.7 6.7 -3.8 5.2C-6 3.6 -7.1 0.5 -6.2 -2.1C-5.4 -4.6 -2.7 -6.6 0.2 -6.6C3.1 -6.7 6.2 -4.8 7 -2.3Z" fill="#74c0ff"></path></g><g transform="translate(216 285)"><path d="M7.7 -2.5C8.7 0.5 7.3 4.3 4.6 6.2C1.9 8.1 -2 8.1 -4.4 6.3C-6.8 4.5 -7.7 0.9 -6.7 -2.2C-5.7 -5.3 -2.9 -7.7 0.2 -7.8C3.4 -7.9 6.7 -5.6 7.7 -2.5Z" fill="#74c0ff"></path></g><g transform="translate(322 83)"><path d="M6.2 -2.2C7 0.4 5.8 3.4 3.6 5C1.4 6.6 -1.8 6.8 -4.1 5.2C-6.4 3.7 -7.6 0.4 -6.8 -2.3C-5.9 -4.9 -3 -6.9 -0.1 -6.9C2.7 -6.8 5.5 -4.7 6.2 -2.2Z" fill="#74c0ff"></path></g><g transform="translate(369 284)"><path d="M7.9 -2.3C8.9 0.5 7.5 4.3 4.8 6.2C2.1 8 -1.7 7.8 -4.2 6C-6.7 4.1 -7.8 0.6 -6.8 -2C-5.9 -4.7 -3 -6.5 0.3 -6.6C3.5 -6.6 7 -5 7.9 -2.3Z" fill="#74c0ff"></path></g><g transform="translate(828 395)"><path d="M4.3 -1.4C4.9 0.5 4.4 2.9 2.8 4.1C1.2 5.3 -1.3 5.3 -3 4.1C-4.6 2.9 -5.3 0.5 -4.7 -1.5C-4 -3.5 -2 -5.1 -0.1 -5.1C1.8 -5 3.7 -3.4 4.3 -1.4Z" fill="#74c0ff"></path></g><g transform="translate(238 15)"><path d="M6.4 -2C7.3 0.6 6.3 4 4.2 5.4C2.1 6.9 -1.2 6.5 -3.3 4.9C-5.5 3.2 -6.5 0.4 -5.8 -2C-5 -4.4 -2.5 -6.4 0.1 -6.4C2.7 -6.5 5.5 -4.6 6.4 -2Z" fill="#74c0ff"></path></g><g transform="translate(367 311)"><path d="M7.8 -2.5C8.9 0.8 7.7 4.9 5 6.9C2.3 8.8 -2 8.7 -4.9 6.6C-7.8 4.6 -9.3 0.5 -8.3 -2.8C-7.2 -6 -3.6 -8.5 -0.1 -8.5C3.4 -8.4 6.7 -5.9 7.8 -2.5Z" fill="#74c0ff"></path></g><g transform="translate(239 306)"><path d="M5.4 -1.8C6.1 0.5 5.2 3.2 3.3 4.6C1.4 6 -1.5 6 -3.2 4.7C-4.9 3.4 -5.4 0.7 -4.7 -1.5C-4 -3.8 -2 -5.7 0.2 -5.7C2.3 -5.8 4.7 -4 5.4 -1.8Z" fill="#74c0ff"></path></g><g transform="translate(826 512)"><path d="M3.4 -1.3C3.9 0.4 3.4 2.1 2.1 3.1C0.9 4.1 -1.1 4.2 -2.5 3.3C-3.8 2.3 -4.5 0.3 -4 -1.4C-3.4 -3.1 -1.7 -4.5 -0.1 -4.4C1.5 -4.4 2.9 -2.9 3.4 -1.3Z" fill="#74c0ff"></path></g><g transform="translate(645 469)"><path d="M4.9 -1.6C5.6 0.4 4.7 2.9 3 4.2C1.2 5.5 -1.4 5.5 -3.3 4.2C-5.2 2.9 -6.4 0.2 -5.7 -1.8C-5 -3.9 -2.5 -5.3 -0.2 -5.2C2.1 -5.2 4.3 -3.6 4.9 -1.6Z" fill="#74c0ff"></path></g><g transform="translate(770 12)"><path d="M4.3 -1.4C4.8 0.3 4 2.4 2.5 3.5C1 4.6 -1.2 4.7 -2.7 3.6C-4.2 2.6 -4.8 0.4 -4.3 -1.3C-3.7 -3.1 -1.8 -4.4 0 -4.4C1.9 -4.4 3.7 -3.1 4.3 -1.4Z" fill="#74c0ff"></path></g><g transform="translate(897 490)"><path d="M8.5 -3.2C9.4 0 7.4 3.8 4.6 5.7C1.7 7.6 -2 7.7 -4.5 6C-7 4.2 -8.2 0.6 -7.3 -2.7C-6.3 -6.1 -3.2 -9 0.3 -9.1C3.8 -9.2 7.6 -6.5 8.5 -3.2Z" fill="#74c0ff"></path></g><g transform="translate(857 235)"><path d="M8.1 -2.6C9 0.3 7.3 4 4.6 5.9C1.9 7.7 -1.8 7.6 -4.5 5.7C-7.2 3.9 -8.9 0.2 -8 -2.6C-7.1 -5.5 -3.5 -7.5 0 -7.5C3.6 -7.5 7.1 -5.5 8.1 -2.6Z" fill="#74c0ff"></path></g><g transform="translate(878 214)"><path d="M7.6 -2.2C8.7 0.9 7.6 5 5 7C2.3 9 -2 8.9 -5 6.7C-7.9 4.6 -9.5 0.5 -8.5 -2.6C-7.4 -5.7 -3.7 -7.7 -0.2 -7.6C3.2 -7.6 6.4 -5.4 7.6 -2.2Z" fill="#74c0ff"></path></g><g transform="translate(577 263)"><path d="M4.1 -1.2C4.7 0.7 4.3 3.1 2.9 4.1C1.5 5.2 -1 5 -2.7 3.7C-4.4 2.5 -5.4 0.2 -4.8 -1.5C-4.2 -3.3 -2.1 -4.5 -0.2 -4.4C1.7 -4.3 3.4 -3 4.1 -1.2Z" fill="#74c0ff"></path></g><g transform="translate(431 89)"><path d="M6.9 -2C8 1 7.1 4.8 4.8 6.5C2.4 8.2 -1.4 7.7 -3.9 5.8C-6.4 3.9 -7.5 0.6 -6.7 -2.2C-5.8 -4.9 -2.9 -6.9 0 -6.9C2.9 -6.9 5.9 -4.9 6.9 -2Z" fill="#74c0ff"></path></g><g transform="translate(94 559)"><path d="M6.7 -2.3C7.6 0.5 6.4 3.9 4 5.7C1.6 7.5 -2.1 7.7 -4.3 6C-6.5 4.4 -7.3 0.9 -6.3 -2.1C-5.3 -5.1 -2.7 -7.5 0.1 -7.6C2.9 -7.6 5.8 -5.2 6.7 -2.3Z" fill="#74c0ff"></path></g><g transform="translate(554 30)"><path d="M7.1 -2.2C8 0.7 6.9 4.3 4.3 6.3C1.7 8.2 -2.3 8.5 -4.8 6.7C-7.3 4.9 -8.3 0.9 -7.2 -2C-6.1 -5 -3.1 -7 0 -7C3.1 -7 6.1 -5 7.1 -2.2Z" fill="#74c0ff"></path></g><g transform="translate(222 498)"><path d="M3.9 -1.3C4.4 0.3 3.8 2.3 2.4 3.3C1.1 4.2 -0.9 4.2 -2.3 3.2C-3.7 2.2 -4.5 0.2 -4 -1.4C-3.5 -3 -1.7 -4.3 0 -4.3C1.7 -4.3 3.4 -3 3.9 -1.3Z" fill="#74c0ff"></path></g><g transform="translate(356 32)"><path d="M7.2 -2C8.2 0.9 7.2 4.8 4.7 6.7C2.1 8.6 -2 8.6 -4.4 6.7C-6.8 4.8 -7.4 1.1 -6.3 -1.8C-5.3 -4.6 -2.7 -6.7 0.2 -6.7C3.1 -6.8 6.1 -4.9 7.2 -2Z" fill="#74c0ff"></path></g><g transform="translate(64 46)"><path d="M6.9 -2.2C7.9 0.7 6.8 4.3 4.3 6.1C1.9 7.9 -2 8 -4.3 6.3C-6.5 4.5 -7.2 1 -6.2 -1.9C-5.3 -4.8 -2.6 -7 0.2 -7C3 -7.1 6 -5 6.9 -2.2Z" fill="#74c0ff"></path></g><g transform="translate(353 563)"><path d="M7.3 -2.5C8.4 0.8 7.3 4.7 4.7 6.6C2.1 8.5 -2 8.4 -4.8 6.4C-7.6 4.4 -9.2 0.5 -8.2 -2.8C-7.2 -6.2 -3.6 -8.8 -0.2 -8.7C3.1 -8.7 6.3 -5.9 7.3 -2.5Z" fill="#74c0ff"></path></g><g transform="translate(527 50)"><path d="M6.5 -2.2C7.5 0.8 6.6 4.3 4.2 6.1C1.9 7.8 -1.9 7.8 -4.5 6C-7.1 4.2 -8.5 0.5 -7.5 -2.5C-6.6 -5.6 -3.3 -8 -0.2 -7.9C2.8 -7.8 5.6 -5.3 6.5 -2.2Z" fill="#74c0ff"></path></g><g transform="translate(264 266)"><path d="M3.9 -1.4C4.4 0.1 3.5 2 2.2 2.9C0.9 3.8 -0.9 3.7 -2.1 2.9C-3.3 2 -3.8 0.3 -3.4 -1.2C-2.9 -2.7 -1.5 -4 0.1 -4C1.7 -4.1 3.4 -2.9 3.9 -1.4Z" fill="#74c0ff"></path></g><g transform="translate(598 420)"><path d="M5.5 -1.7C6.2 0.3 5.2 3 3.3 4.4C1.3 5.8 -1.5 5.9 -3.3 4.6C-5.1 3.3 -5.9 0.5 -5.2 -1.6C-4.5 -3.7 -2.2 -5.1 0.1 -5.2C2.4 -5.2 4.8 -3.8 5.5 -1.7Z" fill="#74c0ff"></path></g><g transform="translate(159 239)"><path d="M7.6 -2.9C8.5 0.4 7 4 4.4 5.9C1.8 7.7 -1.9 7.8 -4.6 5.9C-7.3 4.1 -8.9 0.3 -7.9 -3C-7 -6.2 -3.5 -9.1 -0.1 -9.1C3.3 -9 6.6 -6.1 7.6 -2.9Z" fill="#74c0ff"></path></g><g transform="translate(699 399)"><path d="M6.9 -2.2C7.8 0.5 6.6 3.9 4 5.7C1.5 7.6 -2.2 7.9 -4.8 6.1C-7.5 4.3 -8.9 0.5 -7.9 -2.3C-6.9 -5.1 -3.5 -6.7 -0.2 -6.7C3 -6.6 6.1 -4.8 6.9 -2.2Z" fill="#74c0ff"></path></g><g transform="translate(790 189)"><path d="M5.5 -1.8C6.3 0.7 5.6 3.7 3.7 5.1C1.9 6.4 -1.1 6.1 -3.3 4.5C-5.4 3 -6.7 0.2 -6 -2.2C-5.3 -4.6 -2.6 -6.5 -0.1 -6.5C2.3 -6.4 4.7 -4.4 5.5 -1.8Z" fill="#74c0ff"></path></g><g transform="translate(657 153)"><path d="M5.6 -1.9C6.3 0.4 5.3 3.2 3.4 4.6C1.5 5.9 -1.4 5.9 -3.4 4.5C-5.5 3.1 -6.7 0.2 -6 -2.1C-5.3 -4.4 -2.6 -6.2 -0.1 -6.2C2.4 -6.1 4.9 -4.3 5.6 -1.9Z" fill="#74c0ff"></path></g><g transform="translate(745 294)"><path d="M6.1 -1.8C6.9 0.5 5.9 3.6 3.7 5.1C1.6 6.6 -1.5 6.5 -3.5 5.1C-5.4 3.6 -6 0.7 -5.2 -1.5C-4.4 -3.8 -2.2 -5.4 0.2 -5.5C2.6 -5.5 5.3 -4 6.1 -1.8Z" fill="#74c0ff"></path></g><g transform="translate(262 409)"><path d="M6.7 -2.3C7.7 0.8 6.8 4.4 4.4 6.1C2.1 7.8 -1.7 7.7 -4.3 5.8C-7 3.9 -8.6 0.3 -7.7 -2.7C-6.8 -5.7 -3.4 -8.1 -0.3 -8.1C2.9 -8 5.7 -5.4 6.7 -2.3Z" fill="#74c0ff"></path></g><g transform="translate(666 86)"><path d="M7.3 -2.1C8.3 0.7 7.2 4.5 4.7 6.2C2.3 7.9 -1.5 7.5 -4.1 5.6C-6.8 3.7 -8.4 0.2 -7.5 -2.4C-6.6 -5 -3.3 -6.7 -0.1 -6.7C3.2 -6.6 6.3 -4.9 7.3 -2.1Z" fill="#74c0ff"></path></g><g transform="translate(618 291)"><path d="M7.1 -2.3C8.1 0.7 6.9 4.4 4.6 6C2.2 7.7 -1.5 7.4 -3.9 5.6C-6.2 3.8 -7.3 0.5 -6.5 -2.3C-5.6 -5.1 -2.8 -7.6 0.1 -7.6C3.1 -7.6 6.1 -5.3 7.1 -2.3Z" fill="#74c0ff"></path></g><g transform="translate(650 199)"><path d="M6.8 -1.8C7.8 1.1 7.1 4.9 4.8 6.6C2.4 8.3 -1.5 7.9 -4.2 5.9C-6.9 3.9 -8.3 0.4 -7.4 -2.3C-6.5 -5 -3.3 -6.7 -0.2 -6.7C2.9 -6.6 5.7 -4.7 6.8 -1.8Z" fill="#74c0ff"></path></g><g transform="translate(772 160)"><path d="M6.4 -1.9C7.4 0.9 6.6 4.5 4.3 6.2C2 8 -1.9 8 -4.1 6.2C-6.3 4.5 -6.9 1 -5.9 -1.8C-5 -4.6 -2.5 -6.8 0.1 -6.8C2.7 -6.8 5.4 -4.8 6.4 -1.9Z" fill="#74c0ff"></path></g><g transform="translate(875 585)"><path d="M4.3 -1.5C4.8 0.4 4.2 2.6 2.6 3.8C1 5 -1.5 5.3 -3.2 4.2C-4.8 3 -5.5 0.5 -4.8 -1.5C-4.2 -3.5 -2.1 -5 -0.1 -5C1.8 -4.9 3.7 -3.4 4.3 -1.5Z" fill="#74c0ff"></path></g><g transform="translate(355 241)"><path d="M5.6 -1.7C6.3 0.3 5.2 2.9 3.3 4.2C1.4 5.5 -1.3 5.5 -3 4.3C-4.8 3 -5.5 0.5 -4.8 -1.5C-4.2 -3.4 -2.1 -4.8 0.2 -4.9C2.5 -4.9 4.9 -3.7 5.6 -1.7Z" fill="#74c0ff"></path></g><g transform="translate(434 348)"><path d="M6.8 -2.3C7.7 0.7 6.7 4.2 4.2 6.1C1.6 8 -2.3 8.3 -4.9 6.5C-7.5 4.7 -8.7 0.7 -7.7 -2.4C-6.6 -5.5 -3.3 -7.8 -0.2 -7.8C2.9 -7.7 5.8 -5.3 6.8 -2.3Z" fill="#74c0ff"></path></g><g transform="translate(825 42)"><path d="M5.1 -1.5C5.7 0.3 4.8 2.8 3.1 3.9C1.5 5 -0.8 4.6 -2.4 3.5C-4 2.3 -4.9 0.2 -4.4 -1.5C-3.9 -3.2 -1.9 -4.5 0.1 -4.6C2.2 -4.6 4.4 -3.4 5.1 -1.5Z" fill="#74c0ff"></path></g><g transform="translate(319 594)"><path d="M6.3 -2.2C7.2 0.7 6.3 4.1 3.9 5.9C1.5 7.8 -2.3 8.1 -4.9 6.4C-7.5 4.6 -8.8 0.6 -7.8 -2.5C-6.7 -5.6 -3.4 -7.9 -0.3 -7.8C2.7 -7.7 5.4 -5.2 6.3 -2.2Z" fill="#74c0ff"></path></g><g transform="translate(545 455)"><path d="M6.7 -2.2C7.6 0.6 6.5 4.1 4.2 5.7C2 7.3 -1.5 7.1 -4.2 5.3C-6.8 3.5 -8.5 0.1 -7.7 -2.6C-6.9 -5.3 -3.4 -7.3 -0.3 -7.2C2.9 -7.1 5.8 -5 6.7 -2.2Z" fill="#74c0ff"></path></g><g transform="translate(131 509)"><path d="M4.5 -1.4C5.1 0.6 4.5 3 3 4C1.6 5.1 -0.8 4.8 -2.6 3.5C-4.4 2.2 -5.5 0 -5 -1.8C-4.4 -3.5 -2.2 -4.9 -0.2 -4.9C1.9 -4.8 3.8 -3.3 4.5 -1.4Z" fill="#74c0ff"></path></g><g transform="translate(202 453)"><path d="M8.3 -2.7C9.3 0.3 7.6 4.2 4.8 6.1C2 8 -1.8 7.9 -4.2 6.1C-6.6 4.3 -7.6 0.7 -6.7 -2.3C-5.7 -5.3 -2.9 -7.8 0.4 -7.9C3.6 -8 7.3 -5.8 8.3 -2.7Z" fill="#74c0ff"></path></g><g transform="translate(686 286)"><path d="M6 -2.1C6.7 0.2 5.4 3 3.3 4.5C1.2 6 -1.8 6.3 -3.7 5C-5.5 3.6 -6.2 0.7 -5.4 -1.8C-4.6 -4.3 -2.3 -6.3 0.2 -6.3C2.6 -6.4 5.3 -4.5 6 -2.1Z" fill="#74c0ff"></path></g><g transform="translate(315 154)"><path d="M5.6 -1.9C6.2 0.2 5.1 2.8 3.1 4.2C1.1 5.7 -1.7 6 -3.6 4.7C-5.4 3.4 -6.3 0.6 -5.5 -1.7C-4.7 -4 -2.4 -5.7 0 -5.7C2.5 -5.7 4.9 -4.1 5.6 -1.9Z" fill="#74c0ff"></path></g><g transform="translate(877 323)"><path d="M4 -1.4C4.6 0.5 4 2.7 2.7 3.7C1.3 4.7 -1 4.5 -2.5 3.4C-4 2.3 -4.9 0.2 -4.4 -1.6C-3.8 -3.5 -1.9 -5.1 -0.1 -5C1.7 -5 3.4 -3.3 4 -1.4Z" fill="#74c0ff"></path></g><g transform="translate(665 307)"><path d="M3.7 -1.3C4.1 0.2 3.4 1.9 2.1 2.8C0.9 3.7 -0.9 3.8 -2.3 2.9C-3.6 2 -4.4 0.1 -3.9 -1.4C-3.5 -2.9 -1.7 -4 -0.1 -4C1.6 -4 3.2 -2.8 3.7 -1.3Z" fill="#74c0ff"></path></g><g transform="translate(532 358)"><path d="M8.2 -2.6C9.3 0.8 8 5 5.3 6.8C2.6 8.7 -1.4 8.1 -4.1 6.1C-6.9 4 -8.2 0.5 -7.3 -2.6C-6.4 -5.7 -3.2 -8.3 0.2 -8.4C3.5 -8.4 7.1 -5.9 8.2 -2.6Z" fill="#74c0ff"></path></g><g transform="translate(198 515)"><path d="M3.8 -1.2C4.4 0.5 3.9 2.6 2.5 3.6C1.2 4.5 -1 4.4 -2.3 3.4C-3.6 2.4 -4 0.5 -3.4 -1.2C-2.9 -2.8 -1.5 -4.2 0.1 -4.2C1.6 -4.2 3.3 -2.9 3.8 -1.2Z" fill="#74c0ff"></path></g><g transform="translate(487 112)"><path d="M4.9 -1.8C5.5 0.3 4.6 2.7 2.9 4C1.2 5.3 -1.4 5.4 -3.1 4.2C-4.7 3 -5.4 0.5 -4.7 -1.6C-4.1 -3.8 -2 -5.6 0.1 -5.6C2.1 -5.6 4.3 -3.9 4.9 -1.8Z" fill="#74c0ff"></path></g><g transform="translate(100 479)"><path d="M5 -1.5C5.6 0.2 4.6 2.6 2.9 3.8C1.1 5 -1.3 5.1 -2.8 4C-4.3 2.9 -4.8 0.6 -4.2 -1.2C-3.6 -3.1 -1.8 -4.4 0.2 -4.4C2.2 -4.5 4.4 -3.3 5 -1.5Z" fill="#74c0ff"></path></g><g transform="translate(476 24)"><path d="M4.5 -1.5C5.2 0.5 4.5 2.9 2.9 4.1C1.2 5.4 -1.4 5.5 -3.1 4.3C-4.7 3.1 -5.3 0.6 -4.6 -1.5C-4 -3.6 -2 -5.3 0 -5.3C1.9 -5.3 3.9 -3.6 4.5 -1.5Z" fill="#74c0ff"></path></g></g></svg>