<svg id="visual" viewBox="0 0 900 600" width="900" height="600" xmlns="http://www.w3.org/2000/svg" xmlns:xlink="http://www.w3.org/1999/xlink" version="1.1"><rect x="0" y="0" width="900" height="600" fill="#FFFFFF"></rect><defs><linearGradient id="grad1_0" x1="33.3%" y1="0%" x2="100%" y2="100%"><stop offset="20%" stop-color="#86cfff" stop-opacity="1"></stop><stop offset="80%" stop-color="#86cfff" stop-opacity="1"></stop></linearGradient></defs><defs><linearGradient id="grad1_1" x1="33.3%" y1="0%" x2="100%" y2="100%"><stop offset="20%" stop-color="#86cfff" stop-opacity="1"></stop><stop offset="80%" stop-color="#b3dfff" stop-opacity="1"></stop></linearGradient></defs><defs><linearGradient id="grad1_2" x1="33.3%" y1="0%" x2="100%" y2="100%"><stop offset="20%" stop-color="#dbefff" stop-opacity="1"></stop><stop offset="80%" stop-color="#b3dfff" stop-opacity="1"></stop></linearGradient></defs><defs><linearGradient id="grad1_3" x1="33.3%" y1="0%" x2="100%" y2="100%"><stop offset="20%" stop-color="#dbefff" stop-opacity="1"></stop><stop offset="80%" stop-color="#ffffff" stop-opacity="1"></stop></linearGradient></defs><defs><linearGradient id="grad2_0" x1="0%" y1="0%" x2="66.7%" y2="100%"><stop offset="20%" stop-color="#86cfff" stop-opacity="1"></stop><stop offset="80%" stop-color="#86cfff" stop-opacity="1"></stop></linearGradient></defs><defs><linearGradient id="grad2_1" x1="0%" y1="0%" x2="66.7%" y2="100%"><stop offset="20%" stop-color="#b3dfff" stop-opacity="1"></stop><stop offset="80%" stop-color="#86cfff" stop-opacity="1"></stop></linearGradient></defs><defs><linearGradient id="grad2_2" x1="0%" y1="0%" x2="66.7%" y2="100%"><stop offset="20%" stop-color="#b3dfff" stop-opacity="1"></stop><stop offset="80%" stop-color="#dbefff" stop-opacity="1"></stop></linearGradient></defs><defs><linearGradient id="grad2_3" x1="0%" y1="0%" x2="66.7%" y2="100%"><stop offset="20%" stop-color="#ffffff" stop-opacity="1"></stop><stop offset="80%" stop-color="#dbefff" stop-opacity="1"></stop></linearGradient></defs><g transform="translate(900, 0)"><path d="M0 486.7C-39.7 444.4 -79.4 402 -125.5 386.1C-171.5 370.2 -223.8 380.8 -265.7 365.7C-307.5 350.6 -339 309.8 -373 271C-407 232.1 -443.5 195.3 -462.9 150.4C-482.3 105.6 -484.5 52.8 -486.7 0L0 0Z" fill="#edf7ff"></path><path d="M0 365.1C-29.8 333.3 -59.6 301.5 -94.1 289.6C-128.6 277.7 -167.9 285.6 -199.3 274.3C-230.7 262.9 -254.2 232.3 -279.7 203.2C-305.2 174.1 -332.6 146.4 -347.2 112.8C-361.7 79.2 -363.4 39.6 -365.1 0L0 0Z" fill="#c7e7ff"></path><path d="M0 243.4C-19.9 222.2 -39.7 201 -62.7 193.1C-85.7 185.1 -111.9 190.4 -132.8 182.8C-153.8 175.3 -169.5 154.9 -186.5 135.5C-203.5 116.1 -221.8 97.6 -231.5 75.2C-241.2 52.8 -242.3 26.4 -243.4 0L0 0Z" fill="#9ed7ff"></path><path d="M0 121.7C-9.9 111.1 -19.9 100.5 -31.4 96.5C-42.9 92.6 -56 95.2 -66.4 91.4C-76.9 87.6 -84.7 77.4 -93.2 67.7C-101.7 58 -110.9 48.8 -115.7 37.6C-120.6 26.4 -121.1 13.2 -121.7 0L0 0Z" fill="#86cfff"></path></g><g transform="translate(0, 600)"><path d="M0 -486.7C44.6 -452.4 89.2 -418 127 -390.9C164.8 -363.7 195.9 -343.8 238.6 -328.5C281.3 -313.1 335.6 -302.4 377 -273.9C418.4 -245.4 446.8 -199 462.9 -150.4C479.1 -101.8 482.9 -50.9 486.7 0L0 0Z" fill="#edf7ff"></path><path d="M0 -365.1C33.4 -339.3 66.9 -313.5 95.3 -293.2C123.6 -272.8 147 -257.8 179 -246.3C211 -234.9 251.7 -226.8 282.8 -205.4C313.8 -184 335.1 -149.3 347.2 -112.8C359.3 -76.3 362.2 -38.2 365.1 0L0 0Z" fill="#c7e7ff"></path><path d="M0 -243.4C22.3 -226.2 44.6 -209 63.5 -195.4C82.4 -181.9 98 -171.9 119.3 -164.2C140.7 -156.6 167.8 -151.2 188.5 -137C209.2 -122.7 223.4 -99.5 231.5 -75.2C239.5 -50.9 241.5 -25.4 243.4 0L0 0Z" fill="#9ed7ff"></path><path d="M0 -121.7C11.1 -113.1 22.3 -104.5 31.8 -97.7C41.2 -90.9 49 -85.9 59.7 -82.1C70.3 -78.3 83.9 -75.6 94.3 -68.5C104.6 -61.3 111.7 -49.8 115.7 -37.6C119.8 -25.4 120.7 -12.7 121.7 0L0 0Z" fill="#86cfff"></path></g></svg>