<svg id="visual" viewBox="0 0 900 600" width="900" height="600" xmlns="http://www.w3.org/2000/svg" xmlns:xlink="http://www.w3.org/1999/xlink" version="1.1"><rect x="0" y="0" width="900" height="600" fill="#FFFFFF"></rect><defs><linearGradient id="grad1_0" x1="33.3%" y1="0%" x2="100%" y2="100%"><stop offset="20%" stop-color="#fcd10f" stop-opacity="1"></stop><stop offset="80%" stop-color="#fcd10f" stop-opacity="1"></stop></linearGradient></defs><defs><linearGradient id="grad1_1" x1="33.3%" y1="0%" x2="100%" y2="100%"><stop offset="20%" stop-color="#fcd10f" stop-opacity="1"></stop><stop offset="80%" stop-color="#ffe075" stop-opacity="1"></stop></linearGradient></defs><defs><linearGradient id="grad1_2" x1="33.3%" y1="0%" x2="100%" y2="100%"><stop offset="20%" stop-color="#ffefbb" stop-opacity="1"></stop><stop offset="80%" stop-color="#ffe075" stop-opacity="1"></stop></linearGradient></defs><defs><linearGradient id="grad1_3" x1="33.3%" y1="0%" x2="100%" y2="100%"><stop offset="20%" stop-color="#ffefbb" stop-opacity="1"></stop><stop offset="80%" stop-color="#ffffff" stop-opacity="1"></stop></linearGradient></defs><defs><linearGradient id="grad2_0" x1="0%" y1="0%" x2="66.7%" y2="100%"><stop offset="20%" stop-color="#fcd10f" stop-opacity="1"></stop><stop offset="80%" stop-color="#fcd10f" stop-opacity="1"></stop></linearGradient></defs><defs><linearGradient id="grad2_1" x1="0%" y1="0%" x2="66.7%" y2="100%"><stop offset="20%" stop-color="#ffe075" stop-opacity="1"></stop><stop offset="80%" stop-color="#fcd10f" stop-opacity="1"></stop></linearGradient></defs><defs><linearGradient id="grad2_2" x1="0%" y1="0%" x2="66.7%" y2="100%"><stop offset="20%" stop-color="#ffe075" stop-opacity="1"></stop><stop offset="80%" stop-color="#ffefbb" stop-opacity="1"></stop></linearGradient></defs><defs><linearGradient id="grad2_3" x1="0%" y1="0%" x2="66.7%" y2="100%"><stop offset="20%" stop-color="#ffffff" stop-opacity="1"></stop><stop offset="80%" stop-color="#ffefbb" stop-opacity="1"></stop></linearGradient></defs><g transform="translate(900, 0)"><path d="M0 513.8C-49.5 495.9 -99.1 477.9 -151.1 465.1C-203.2 452.2 -257.7 444.4 -302 415.7C-346.3 387 -380.2 337.4 -394.8 286.8C-409.4 236.3 -404.7 184.9 -421.3 136.9C-437.9 88.9 -475.9 44.5 -513.8 0L0 0Z" fill="#fff7dd"></path><path d="M0 385.3C-37.1 371.9 -74.3 358.5 -113.3 348.8C-152.4 339.1 -193.3 333.3 -226.5 311.7C-259.7 290.2 -285.1 253 -296.1 215.1C-307.1 177.2 -303.5 138.6 -316 102.7C-328.4 66.7 -356.9 33.3 -385.3 0L0 0Z" fill="#ffe798"></path><path d="M0 256.9C-24.8 247.9 -49.5 239 -75.6 232.5C-101.6 226.1 -128.9 222.2 -151 207.8C-173.1 193.5 -190.1 168.7 -197.4 143.4C-204.7 118.2 -202.4 92.4 -210.7 68.4C-219 44.5 -237.9 22.2 -256.9 0L0 0Z" fill="#ffd84e"></path><path d="M0 128.4C-12.4 124 -24.8 119.5 -37.8 116.3C-50.8 113 -64.4 111.1 -75.5 103.9C-86.6 96.7 -95 84.3 -98.7 71.7C-102.4 59.1 -101.2 46.2 -105.3 34.2C-109.5 22.2 -119 11.1 -128.4 0L0 0Z" fill="#fcd10f"></path></g><g transform="translate(0, 600)"><path d="M0 -513.8C55.8 -505.4 111.6 -497.1 151.1 -465.1C190.6 -433 213.8 -377.3 251 -345.5C288.2 -313.6 339.3 -305.5 384.3 -279.2C429.3 -252.9 468.1 -208.3 488.6 -158.8C509.2 -109.2 511.5 -54.6 513.8 0L0 0Z" fill="#fff7dd"></path><path d="M0 -385.3C41.9 -379.1 83.7 -372.8 113.3 -348.8C143 -324.8 160.4 -283 188.2 -259.1C216.1 -235.2 254.5 -229.1 288.2 -209.4C321.9 -189.7 351.1 -156.3 366.5 -119.1C381.9 -81.9 383.6 -40.9 385.3 0L0 0Z" fill="#ffe798"></path><path d="M0 -256.9C27.9 -252.7 55.8 -248.5 75.6 -232.5C95.3 -216.5 106.9 -188.7 125.5 -172.7C144.1 -156.8 169.7 -152.8 192.1 -139.6C214.6 -126.4 234 -104.2 244.3 -79.4C254.6 -54.6 255.7 -27.3 256.9 0L0 0Z" fill="#ffd84e"></path><path d="M0 -128.4C14 -126.4 27.9 -124.3 37.8 -116.3C47.7 -108.3 53.5 -94.3 62.7 -86.4C72 -78.4 84.8 -76.4 96.1 -69.8C107.3 -63.2 117 -52.1 122.2 -39.7C127.3 -27.3 127.9 -13.6 128.4 0L0 0Z" fill="#fcd10f"></path></g></svg>