<svg id="visual" viewBox="0 0 900 600" width="900" height="600" xmlns="http://www.w3.org/2000/svg" xmlns:xlink="http://www.w3.org/1999/xlink" version="1.1"><rect x="0" y="0" width="900" height="600" fill="#FFFFFF"></rect><defs><linearGradient id="grad1_0" x1="33.3%" y1="0%" x2="100%" y2="100%"><stop offset="20%" stop-color="#adadad" stop-opacity="1"></stop><stop offset="80%" stop-color="#adadad" stop-opacity="1"></stop></linearGradient></defs><defs><linearGradient id="grad1_1" x1="33.3%" y1="0%" x2="100%" y2="100%"><stop offset="20%" stop-color="#adadad" stop-opacity="1"></stop><stop offset="80%" stop-color="#c8c8c8" stop-opacity="1"></stop></linearGradient></defs><defs><linearGradient id="grad1_2" x1="33.3%" y1="0%" x2="100%" y2="100%"><stop offset="20%" stop-color="#e3e3e3" stop-opacity="1"></stop><stop offset="80%" stop-color="#c8c8c8" stop-opacity="1"></stop></linearGradient></defs><defs><linearGradient id="grad1_3" x1="33.3%" y1="0%" x2="100%" y2="100%"><stop offset="20%" stop-color="#e3e3e3" stop-opacity="1"></stop><stop offset="80%" stop-color="#ffffff" stop-opacity="1"></stop></linearGradient></defs><defs><linearGradient id="grad2_0" x1="0%" y1="0%" x2="66.7%" y2="100%"><stop offset="20%" stop-color="#adadad" stop-opacity="1"></stop><stop offset="80%" stop-color="#adadad" stop-opacity="1"></stop></linearGradient></defs><defs><linearGradient id="grad2_1" x1="0%" y1="0%" x2="66.7%" y2="100%"><stop offset="20%" stop-color="#c8c8c8" stop-opacity="1"></stop><stop offset="80%" stop-color="#adadad" stop-opacity="1"></stop></linearGradient></defs><defs><linearGradient id="grad2_2" x1="0%" y1="0%" x2="66.7%" y2="100%"><stop offset="20%" stop-color="#c8c8c8" stop-opacity="1"></stop><stop offset="80%" stop-color="#e3e3e3" stop-opacity="1"></stop></linearGradient></defs><defs><linearGradient id="grad2_3" x1="0%" y1="0%" x2="66.7%" y2="100%"><stop offset="20%" stop-color="#ffffff" stop-opacity="1"></stop><stop offset="80%" stop-color="#e3e3e3" stop-opacity="1"></stop></linearGradient></defs><g transform="translate(900, 0)"><path d="M0 540.8C-48.1 501.4 -96.2 461.9 -142.5 438.4C-188.7 415 -233.1 407.6 -285.7 393.2C-338.2 378.8 -399 357.5 -437.5 317.9C-476.1 278.3 -492.4 220.4 -506 164.4C-519.5 108.4 -530.2 54.2 -540.8 0L0 0Z" fill="#f1f1f1"></path><path d="M0 405.6C-36.1 376 -72.2 346.4 -106.8 328.8C-141.5 311.2 -174.8 305.7 -214.2 294.9C-253.7 284.1 -299.2 268.1 -328.2 238.4C-357.1 208.7 -369.3 165.3 -379.5 123.3C-389.6 81.3 -397.6 40.6 -405.6 0L0 0Z" fill="#d5d5d5"></path><path d="M0 270.4C-24.1 250.7 -48.1 230.9 -71.2 219.2C-94.4 207.5 -116.5 203.8 -142.8 196.6C-169.1 189.4 -199.5 178.7 -218.8 158.9C-238 139.1 -246.2 110.2 -253 82.2C-259.7 54.2 -265.1 27.1 -270.4 0L0 0Z" fill="#bababa"></path><path d="M0 135.2C-12 125.3 -24.1 115.5 -35.6 109.6C-47.2 103.7 -58.3 101.9 -71.4 98.3C-84.6 94.7 -99.7 89.4 -109.4 79.5C-119 69.6 -123.1 55.1 -126.5 41.1C-129.9 27.1 -132.5 13.5 -135.2 0L0 0Z" fill="#adadad"></path></g><g transform="translate(0, 600)"><path d="M0 -540.8C62.6 -544.2 125.3 -547.6 167.1 -514.4C209 -481.1 230 -411.3 271.6 -373.8C313.1 -336.2 375.3 -331 411.8 -299.2C448.3 -267.4 459.2 -209.1 476.5 -154.8C493.7 -100.5 517.3 -50.3 540.8 0L0 0Z" fill="#f1f1f1"></path><path d="M0 -405.6C47 -408.2 94 -410.7 125.3 -385.8C156.7 -360.9 172.5 -308.5 203.7 -280.3C234.8 -252.2 281.4 -248.2 308.8 -224.4C336.2 -200.6 344.4 -156.8 357.4 -116.1C370.3 -75.4 388 -37.7 405.6 0L0 0Z" fill="#d5d5d5"></path><path d="M0 -270.4C31.3 -272.1 62.6 -273.8 83.6 -257.2C104.5 -240.6 115 -205.7 135.8 -186.9C156.6 -168.1 187.6 -165.5 205.9 -149.6C224.2 -133.7 229.6 -104.6 238.2 -77.4C246.9 -50.3 258.6 -25.1 270.4 0L0 0Z" fill="#bababa"></path><path d="M0 -135.2C15.7 -136.1 31.3 -136.9 41.8 -128.6C52.2 -120.3 57.5 -102.8 67.9 -93.4C78.3 -84.1 93.8 -82.7 102.9 -74.8C112.1 -66.9 114.8 -52.3 119.1 -38.7C123.4 -25.1 129.3 -12.6 135.2 0L0 0Z" fill="#adadad"></path></g></svg>